<?xml version="1.0" encoding="UTF-8" standalone="no"?>
<svg
   xmlns:dc="http://purl.org/dc/elements/1.1/"
   xmlns:cc="http://creativecommons.org/ns#"
   xmlns:rdf="http://www.w3.org/1999/02/22-rdf-syntax-ns#"
   xmlns:svg="http://www.w3.org/2000/svg"
   xmlns="http://www.w3.org/2000/svg"
   xmlns:sodipodi="http://sodipodi.sourceforge.net/DTD/sodipodi-0.dtd"
   xmlns:inkscape="http://www.inkscape.org/namespaces/inkscape"
   viewBox="-927.5 -452 1113.7855 551.17371"
   width="1113.7855"
   height="551.17371"
   version="1.1"
   id="svg260"
   sodipodi:docname="networkG.svg"
   inkscape:version="0.92.4 (unknown)"
   inkscape:export-filename="/home/ankur/tutorial/simple-gan-example/imgs/networkG.svg.png"
   inkscape:export-xdpi="96"
   inkscape:export-ydpi="96">
  <metadata
     id="metadata266">
    <rdf:RDF>
      <cc:Work
         rdf:about="">
        <dc:format>image/svg+xml</dc:format>
        <dc:type
           rdf:resource="http://purl.org/dc/dcmitype/StillImage" />
        <dc:title />
      </cc:Work>
    </rdf:RDF>
  </metadata>
  <defs
     id="defs264" />
  <sodipodi:namedview
     pagecolor="#ffffff"
     bordercolor="#666666"
     borderopacity="1"
     objecttolerance="10"
     gridtolerance="10"
     guidetolerance="10"
     inkscape:pageopacity="0"
     inkscape:pageshadow="2"
     inkscape:window-width="1855"
     inkscape:window-height="1056"
     id="namedview262"
     showgrid="false"
     inkscape:zoom="0.69328509"
     inkscape:cx="1022.4173"
     inkscape:cy="344.608"
     inkscape:window-x="65"
     inkscape:window-y="24"
     inkscape:window-maximized="1"
     inkscape:current-layer="svg260" />
  <path
     d="m -739.99797,-238.06554 6.76706,4.4061 27.63397,-4.62751 z"
     style="fill:#000000"
     id="path214"
     inkscape:connector-curvature="0" />
  <path
     d="m -729.04863,-257.03555 -8.36455,4.52278 31.81624,14.22582 z"
     style="fill:#000000"
     id="path218"
     inkscape:connector-curvature="0" />
  <path
     d="m -737.41318,-252.51277 -2.58479,14.44723 34.40103,-0.22141 z"
     style="fill:#000000"
     id="path224"
     inkscape:connector-curvature="0" />
  <path
     d="m -675.25138,-286.56891 v 64.7229 m 0,0 -39.45569,21.33401 m 240.57691,29.93563 -201.12122,-51.26964 m 0,-64.7229 -39.45569,21.33401 m 240.57691,29.93563 -201.12122,-51.26964"
     style="fill:none;stroke:#000000;stroke-width:1;stroke-linecap:round"
     id="path2"
     inkscape:connector-curvature="0" />
  <path
     d="m -675.25138,-286.56891 v 64.7229 l -39.45569,-43.38889 z m 0,64.7229 -39.45569,21.33401 v -64.7229 z"
     style="fill:#eeeeee;fill-opacity:0.32000002"
     id="path4"
     inkscape:connector-curvature="0" />
  <path
     d="m -705.93925,-214.30277 -8.53838,4.61677 m 209.6596,46.65287 -201.12122,-51.26964 m 0,-14.00631 v 14.00631 m 0,-14.00631 -8.53838,4.61677 m 209.6596,46.65287 -201.12122,-51.26964"
     style="fill:none;stroke:#000000;stroke-width:1;stroke-linecap:round"
     id="path6"
     inkscape:connector-curvature="0" />
  <path
     d="m -474.13016,-170.57637 -201.12122,-51.26964 v -64.7229 z"
     style="fill:#eeeeee;fill-opacity:0.32000002"
     id="path8"
     inkscape:connector-curvature="0" />
  <path
     d="m -705.93925,-228.30908 v 14.00631 l -8.53838,-9.38954 z"
     style="fill:#99ddff;fill-opacity:0.4"
     id="path10"
     inkscape:connector-curvature="0" />
  <path
     d="m -714.70707,-265.2349 v 64.7229 m 0,0 201.12122,51.26964"
     style="fill:none;stroke:#000000;stroke-width:1;stroke-linecap:round"
     id="path12"
     inkscape:connector-curvature="0" />
  <path
     d="m -705.93925,-214.30277 -8.53838,4.61677 v -14.00631 z"
     style="fill:#99ddff;fill-opacity:0.4"
     id="path14"
     inkscape:connector-curvature="0" />
  <path
     d="m -714.47763,-223.69231 v 14.00631 m 0,0 201.12122,51.26964"
     style="fill:none;stroke:#000000;stroke-width:1;stroke-linecap:round"
     id="path16"
     inkscape:connector-curvature="0" />
  <path
     d="m -714.70707,-200.512 39.45569,-21.33401 201.12122,51.26964 z"
     style="fill:#eeeeee;fill-opacity:0.32000002"
     id="path18"
     inkscape:connector-curvature="0" />
  <path
     d="m -714.47763,-223.69231 201.12122,51.26964 m -201.35066,-92.81223 201.12122,51.26964"
     style="fill:none;stroke:#000000;stroke-width:1;stroke-linecap:round"
     id="path20"
     inkscape:connector-curvature="0" />
  <path
     d="m -504.81803,-163.03313 -201.12122,-51.26964 v -14.00631 z m -209.6596,-46.65287 8.53838,-4.61677 201.12122,51.26964 z m 0,-14.00631 201.12122,51.26964 -192.58284,-55.88641 z"
     style="fill:#99ddff;fill-opacity:0.4"
     id="path22"
     inkscape:connector-curvature="0" />
  <path
     d="m -474.13016,-235.29927 v 64.7229 l -201.12122,-115.99254 z"
     style="fill:#eeeeee;fill-opacity:0.32000002"
     id="path24"
     inkscape:connector-curvature="0" />
  <path
     d="m -714.47763,-223.69231 v 14.00631 l 201.12122,37.26333 z"
     style="fill:#99ddff;fill-opacity:0.4"
     id="path26"
     inkscape:connector-curvature="0" />
  <path
     d="m -714.70707,-265.2349 201.12122,51.26964 -161.66553,-72.60365 z m 0,0 v 64.7229 l 201.12122,-13.45326 z m 201.12122,115.99254 -201.12122,-51.26964 240.57691,29.93563 z"
     style="fill:#eeeeee;fill-opacity:0.32000002"
     id="path28"
     inkscape:connector-curvature="0" />
  <path
     d="m -474.13016,-170.57637 -39.45569,21.33401 m 39.45569,-86.05691 v 64.7229"
     style="fill:none;stroke:#000000;stroke-width:1;stroke-linecap:round"
     id="path30"
     inkscape:connector-curvature="0" />
  <path
     d="m -513.58585,-213.96526 39.45569,-21.33401 -201.12122,-51.26964 z"
     style="fill:#eeeeee;fill-opacity:0.32000002"
     id="path32"
     inkscape:connector-curvature="0" />
  <path
     d="m -504.81803,-177.03944 v 14.00631 l -201.12122,-65.27595 z m -8.53838,18.62308 -201.12122,-51.26964 209.6596,46.65287 z m 0,-14.00631 8.53838,-4.61677 -201.12122,-51.26964 z m -201.12122,-37.26333 201.12122,51.26964 v -14.00631 z"
     style="fill:#99ddff;fill-opacity:0.4"
     id="path34"
     inkscape:connector-curvature="0" />
  <path
     d="m -714.70707,-200.512 201.12122,51.26964 v -64.7229 z"
     style="fill:#eeeeee;fill-opacity:0.32000002"
     id="path36"
     inkscape:connector-curvature="0" />
  <path
     d="m -474.13016,-235.29927 -39.45569,21.33401"
     style="fill:none;stroke:#000000;stroke-width:1;stroke-linecap:round"
     id="path38"
     inkscape:connector-curvature="0" />
  <path
     d="m -513.58585,-149.24236 39.45569,-21.33401 v -64.7229 z"
     style="fill:#eeeeee;fill-opacity:0.32000002"
     id="path40"
     inkscape:connector-curvature="0" />
  <path
     d="m -210.87498,-96.740135 -172.38961,-43.945405 m 0,0 -55.38305,29.94607 m 55.38305,-120.79614 v 90.85007 m -121.55344,-22.34759 -8.53838,4.61677 m 8.53838,-18.62308 v 14.00631 m 1e-5,0 -8.53838,4.61677 m 8.53838,-18.62308 v 14.00631 m 0,0 72.485,26.34592 m -72.48501,-40.35223 -8.53838,4.61677 m 8.53839,-4.61677 72.485,40.35223 m -72.485,-40.35223 -8.53838,4.61677"
     style="fill:none;stroke:#000000;stroke-width:1;stroke-linecap:round"
     id="path42"
     inkscape:connector-curvature="0" />
  <path
     d="m -513.35641,-158.41636 8.53838,-4.61677 v -14.00631 z"
     style="fill:#99ddff;fill-opacity:0.4"
     id="path44"
     inkscape:connector-curvature="0" />
  <path
     d="m -504.81803,-177.03944 v 14.00631 l -8.53837,4.61677 z"
     style="fill:#ffbbbb;fill-opacity:0.4"
     id="path46"
     inkscape:connector-curvature="0" />
  <path
     d="m -513.58585,-213.96526 v 64.7229 l 39.45569,-86.05691 z"
     style="fill:#eeeeee;fill-opacity:0.32000002"
     id="path48"
     inkscape:connector-curvature="0" />
  <path
     d="m -513.58585,-213.96526 v 64.7229"
     style="fill:none;stroke:#000000;stroke-width:1;stroke-linecap:round"
     id="path50"
     inkscape:connector-curvature="0" />
  <path
     d="m -513.35641,-172.42267 v 14.00631 l 8.53838,-18.62308 z"
     style="fill:#99ddff;fill-opacity:0.4"
     id="path52"
     inkscape:connector-curvature="0" />
  <path
     d="m -504.81803,-177.03944 -8.53837,18.62308 v -14.00631 z"
     style="fill:#ffbbbb;fill-opacity:0.4"
     id="path54"
     inkscape:connector-curvature="0" />
  <path
     d="m -513.35641,-172.42267 v 14.00631 m 10e-6,0 81.02338,21.72915 m -81.02338,-21.72915 v -14.00631 m 0,0 81.02338,35.73546 m 203.36105,34.20439 -172.38961,-43.9454 m 0,-18.67509 v 18.67509 m 0,0 -11.38451,6.15569"
     style="fill:none;stroke:#000000;stroke-width:1;stroke-linecap:round"
     id="path56"
     inkscape:connector-curvature="0" />
  <path
     d="m -504.81803,-163.03313 v -14.00631 l 72.48501,40.35223 z m -8.53837,4.61677 8.53837,-4.61677 72.48501,26.34592 z"
     style="fill:#ffbbbb;fill-opacity:0.4"
     id="path58"
     inkscape:connector-curvature="0" />
  <path
     d="m -210.87498,-187.59021 -172.38961,-43.9454 m 0,0 -55.38305,29.94607 m 37.28606,36.48623 -11.38451,6.1557 m 183.77412,37.78971 -172.38961,-43.94541"
     style="fill:none;stroke:#000000;stroke-width:1;stroke-linecap:round"
     id="path60"
     inkscape:connector-curvature="0" />
  <path
     d="m -504.81803,-177.03944 -8.53837,4.61677 81.02338,35.73546 z m -8.53837,4.61677 v 14.00631 l 81.02338,21.72915 z"
     style="fill:#ffbbbb;fill-opacity:0.4"
     id="path62"
     inkscape:connector-curvature="0" />
  <path
     d="m -401.36158,-165.10331 v 18.67509 l -11.38451,-12.51939 z m 0,18.67509 -11.38451,6.15569 v -18.67508 z"
     style="fill:#99ddff;fill-opacity:0.4"
     id="path64"
     inkscape:connector-curvature="0" />
  <path
     d="m -412.74609,-158.94761 v 18.67508 m 0,0 172.38961,43.945404"
     style="fill:none;stroke:#000000;stroke-width:1;stroke-linecap:round"
     id="path66"
     inkscape:connector-curvature="0" />
  <path
     d="m -210.87498,-96.740135 -172.38961,-43.945405 v -90.85007 z M -383.26459,-231.53561 v 90.85007 l -55.38305,-60.904 z"
     style="fill:#eeeeee;fill-opacity:0.32000002"
     id="path68"
     inkscape:connector-curvature="0" />
  <path
     d="m -412.74609,-158.94761 172.38961,43.9454"
     style="fill:none;stroke:#000000;stroke-width:1;stroke-linecap:round"
     id="path70"
     inkscape:connector-curvature="0" />
  <path
     d="m -438.64764,-110.73947 55.38305,-29.94607 172.38961,43.945405 z m 55.38305,-29.94607 -55.38305,29.94607 v -90.85007 z"
     style="fill:#eeeeee;fill-opacity:0.32000002"
     id="path72"
     inkscape:connector-curvature="0" />
  <path
     d="m -228.97197,-102.48282 -172.38961,-43.9454 v -18.67509 z m -183.77412,-37.78971 11.38451,-6.15569 172.38961,43.9454 z"
     style="fill:#99ddff;fill-opacity:0.4"
     id="path74"
     inkscape:connector-curvature="0" />
  <path
     d="m -438.64764,-201.58954 v 90.85007 m 0,0 172.38961,43.945403"
     style="fill:none;stroke:#000000;stroke-width:1;stroke-linecap:round"
     id="path76"
     inkscape:connector-curvature="0" />
  <path
     d="m -412.74609,-158.94761 172.38961,43.9454 -161.0051,-50.1011 z m 0,0 v 18.67508 l 172.38961,25.27032 z"
     style="fill:#99ddff;fill-opacity:0.4"
     id="path78"
     inkscape:connector-curvature="0" />
  <path
     d="m -210.87498,-187.59021 v 90.850075 L -383.26459,-231.53561 Z"
     style="fill:#eeeeee;fill-opacity:0.32000002"
     id="path80"
     inkscape:connector-curvature="0" />
  <path
     d="m -228.97197,-121.1579 v 18.67508 l -172.38961,-62.62049 z"
     style="fill:#99ddff;fill-opacity:0.4"
     id="path82"
     inkscape:connector-curvature="0" />
  <path
     d="m -210.87498,-187.59021 v 90.850075 m 0,0 -55.38305,29.946068 m -172.38961,-134.795473 172.38961,43.9454"
     style="fill:none;stroke:#000000;stroke-width:1;stroke-linecap:round"
     id="path84"
     inkscape:connector-curvature="0" />
  <path
     d="m -240.35648,-96.327126 -172.38961,-43.945404 183.77412,37.78971 z m 0,-18.675084 11.38451,-6.15569 -172.38961,-43.94541 z m -172.38961,-25.27032 172.38961,43.945404 v -18.675084 z"
     style="fill:#99ddff;fill-opacity:0.4"
     id="path86"
     inkscape:connector-curvature="0" />
  <path
     d="m -438.64764,-201.58954 172.38961,43.9454 -117.00656,-73.89147 z m 172.38961,134.795473 -172.38961,-43.945403 227.77266,13.999335 z m 0,-90.850073 55.38305,-29.94607 -172.38961,-43.9454 z m -172.38961,-43.9454 v 90.85007 l 172.38961,-46.90467 z"
     style="fill:#eeeeee;fill-opacity:0.32000002"
     id="path88"
     inkscape:connector-curvature="0" />
  <path
     d="m -228.97197,-102.48282 -11.38451,6.155694 m 11.38451,-24.830774 v 18.67508 m 0,0 78.59965,21.445467 m -78.59965,-40.120547 v 18.67508 m 0,0 -11.3845,6.155694 m 265.905327,68.18866 -143.658027,-36.621172 m 0,0 -75.1109,40.613075 m 75.1109,-163.824597 v 123.211522 m -92.76581,-122.830572 -55.38305,29.94607"
     style="fill:none;stroke:#000000;stroke-width:1;stroke-linecap:round"
     id="path90"
     inkscape:connector-curvature="0" />
  <path
     d="m -266.25803,-66.794067 55.38305,-29.946068 v -90.850075 z"
     style="fill:#eeeeee;fill-opacity:0.32000002"
     id="path92"
     inkscape:connector-curvature="0" />
  <path
     d="m -228.97197,-121.1579 -11.38451,6.15569 m 11.38451,-6.15569 78.59965,40.120547 m -78.59965,-40.120547 -11.3845,6.15569"
     style="fill:none;stroke:#000000;stroke-width:1;stroke-linecap:round"
     id="path94"
     inkscape:connector-curvature="0" />
  <path
     d="m -240.35648,-96.327126 11.38451,-6.155694 v -18.67508 z"
     style="fill:#99ddff;fill-opacity:0.4"
     id="path96"
     inkscape:connector-curvature="0" />
  <path
     d="m -228.97197,-121.1579 v 18.67508 l -11.3845,6.155695 z"
     style="fill:#ffbbbb;fill-opacity:0.4"
     id="path98"
     inkscape:connector-curvature="0" />
  <path
     d="m -240.35648,-115.00221 v 18.675084 l 11.38451,-24.830774 z"
     style="fill:#99ddff;fill-opacity:0.4"
     id="path100"
     inkscape:connector-curvature="0" />
  <path
     d="m -228.97197,-121.1579 -11.3845,24.830775 v -18.675085 z"
     style="fill:#ffbbbb;fill-opacity:0.4"
     id="path102"
     inkscape:connector-curvature="0" />
  <path
     d="m -240.35648,-115.00221 v 18.675084 m 1e-5,0 89.98415,15.289773 m -89.98415,-15.289773 v -18.675084"
     style="fill:none;stroke:#000000;stroke-width:1;stroke-linecap:round"
     id="path104"
     inkscape:connector-curvature="0" />
  <path
     d="m -438.64764,-110.73947 172.38961,43.945403 v -90.850073 z"
     style="fill:#eeeeee;fill-opacity:0.32000002"
     id="path106"
     inkscape:connector-curvature="0" />
  <path
     d="m -228.97197,-102.48282 v -18.67508 l 78.59965,40.120548 z"
     style="fill:#ffbbbb;fill-opacity:0.4"
     id="path108"
     inkscape:connector-curvature="0" />
  <path
     d="m -240.35647,-115.00221 89.98415,33.964857"
     style="fill:none;stroke:#000000;stroke-width:1;stroke-linecap:round"
     id="path110"
     inkscape:connector-curvature="0" />
  <path
     d="m -240.35647,-96.327125 11.3845,-6.155695 78.59965,21.445468 z m 11.3845,-24.830775 -11.3845,6.15569 89.98415,33.964858 z m -11.3845,6.15569 v 18.675085 l 89.98415,15.289773 z"
     style="fill:#ffbbbb;fill-opacity:0.4"
     id="path112"
     inkscape:connector-curvature="0" />
  <path
     d="m -266.25803,-157.64414 v 90.850073 l 55.38305,-120.796143 z"
     style="fill:#eeeeee;fill-opacity:0.32000002"
     id="path114"
     inkscape:connector-curvature="0" />
  <path
     d="m -266.25803,-157.64414 v 90.850073 m 124.4249,-15.926204 -11.38451,6.155694 m 11.38451,-24.830773 v 18.675079 M 1.8248922,-46.099098 -141.83313,-82.720271"
     style="fill:none;stroke:#000000;stroke-width:1;stroke-linecap:round"
     id="path116"
     inkscape:connector-curvature="0" />
  <path
     d="M 25.548857,-28.138466 -118.10917,-64.759638 V -187.97116 Z"
     style="fill:#eeeeee;fill-opacity:0.32000002"
     id="path118"
     inkscape:connector-curvature="0" />
  <path
     d="m 25.548857,-151.34999 -143.658027,-36.62117 m 0,0 -75.1109,40.61307 m 51.38694,45.96274 -11.38451,6.155692 M 1.8248922,-64.774179 -141.83313,-101.39535"
     style="fill:none;stroke:#000000;stroke-width:1;stroke-linecap:round"
     id="path120"
     inkscape:connector-curvature="0" />
  <path
     d="m -141.83313,-101.39535 v 18.675079 l -11.38451,-12.519387 z m 0,18.675079 -11.38451,6.155694 v -18.675081 z"
     style="fill:#99ddff;fill-opacity:0.4"
     id="path122"
     inkscape:connector-curvature="0" />
  <path
     d="M -153.21764,-76.564577 -9.5596123,-39.943404 M -153.21764,-95.239658 v 18.675081"
     style="fill:none;stroke:#000000;stroke-width:1;stroke-linecap:round"
     id="path124"
     inkscape:connector-curvature="0" />
  <path
     d="m -193.22007,-24.146563 75.1109,-40.613075 143.658027,36.621172 z m 75.1109,-163.824597 v 123.211522 l -75.1109,-82.598452 z"
     style="fill:#eeeeee;fill-opacity:0.32000002"
     id="path126"
     inkscape:connector-curvature="0" />
  <path
     d="M -153.21764,-95.239658 -9.5596123,-58.618485"
     style="fill:none;stroke:#000000;stroke-width:1;stroke-linecap:round"
     id="path128"
     inkscape:connector-curvature="0" />
  <path
     d="M 1.8248922,-46.099098 -141.83313,-82.720271 v -18.675079 z m -155.0425322,-30.465479 11.38451,-6.155694 143.6580222,36.621173 z"
     style="fill:#99ddff;fill-opacity:0.4"
     id="path130"
     inkscape:connector-curvature="0" />
  <path
     d="m -118.10917,-64.759638 -75.1109,40.613075 V -147.35809 Z"
     style="fill:#eeeeee;fill-opacity:0.32000002"
     id="path132"
     inkscape:connector-curvature="0" />
  <path
     d="M 25.548857,-28.138466 -49.562041,12.474609 M 25.548857,-151.34999 v 123.211524"
     style="fill:none;stroke:#000000;stroke-width:1;stroke-linecap:round"
     id="path134"
     inkscape:connector-curvature="0" />
  <path
     d="M -153.21764,-95.239658 -9.5596123,-58.618485 -141.83313,-101.39535 Z"
     style="fill:#99ddff;fill-opacity:0.4"
     id="path136"
     inkscape:connector-curvature="0" />
  <path
     d="M 25.548857,-151.34999 V -28.138466 L -118.10917,-187.97116 Z"
     style="fill:#eeeeee;fill-opacity:0.32000002"
     id="path138"
     inkscape:connector-curvature="0" />
  <path
     d="m -153.21764,-95.239658 v 18.675081 l 143.6580277,17.946092 z"
     style="fill:#99ddff;fill-opacity:0.4"
     id="path140"
     inkscape:connector-curvature="0" />
  <path
     d="m -193.22007,-147.35809 v 123.211527 m 0,0 143.658029,36.621172"
     style="fill:none;stroke:#000000;stroke-width:1;stroke-linecap:round"
     id="path142"
     inkscape:connector-curvature="0" />
  <path
     d="m 1.8248922,-64.774179 v 18.675081 L -141.83313,-101.39535 Z M -9.5596123,-39.943404 -153.21764,-76.564577 1.8248922,-46.099098 Z m 0,-18.675081 11.3845045,-6.155694 -143.6580222,-36.621171 z"
     style="fill:#99ddff;fill-opacity:0.4"
     id="path144"
     inkscape:connector-curvature="0" />
  <path
     d="m 120.3872,4.3703592 -4.14509,-1.056664 m 0,-155.5729652 V 3.3136952 m 0,0 -94.838737,51.2800758"
     style="fill:none;stroke:#000000;stroke-width:1;stroke-linecap:round"
     id="path146"
     inkscape:connector-curvature="0" />
  <path
     d="M -153.21764,-76.564577 -9.5596123,-39.943404 V -58.618485 Z"
     style="fill:#99ddff;fill-opacity:0.4"
     id="path148"
     inkscape:connector-curvature="0" />
  <path
     d="M 120.3872,4.3703592 25.548467,55.650441 M 120.3872,-151.20261 V 4.3703592"
     style="fill:none;stroke:#000000;stroke-width:1;stroke-linecap:round"
     id="path150"
     inkscape:connector-curvature="0" />
  <path
     d="M -49.562041,12.474609 -193.22007,-24.146563 25.548857,-28.138466 Z"
     style="fill:#eeeeee;fill-opacity:0.32000002"
     id="path152"
     inkscape:connector-curvature="0" />
  <path
     d="m 1.8248922,-46.099098 -11.3845045,6.155694 M 1.8248922,-64.774179 v 18.675081 m -1e-6,-1e-6 79.3473978,19.359344 M 1.8248912,-64.774178 v 18.675079 m 0,0 -11.384503,6.155694 m 35.1084688,-111.406585 -75.110898,40.61308"
     style="fill:none;stroke:#000000;stroke-width:1;stroke-linecap:round"
     id="path154"
     inkscape:connector-curvature="0" />
  <path
     d="M -49.562041,12.474609 25.548857,-28.138466 V -151.34999 Z"
     style="fill:#eeeeee;fill-opacity:0.32000002"
     id="path156"
     inkscape:connector-curvature="0" />
  <path
     d="m 1.8248922,-64.774179 -11.3845045,6.155694 m 11.3845035,-6.155693 -11.384503,6.155693 m 11.384503,-6.155693 79.3473978,38.034423"
     style="fill:none;stroke:#000000;stroke-width:1;stroke-linecap:round"
     id="path158"
     inkscape:connector-curvature="0" />
  <path
     d="m 1.8248892,-64.77418 v 18.675081 l -11.3845037,6.155695 z"
     style="fill:#ffbbbb;fill-opacity:0.4"
     id="path160"
     inkscape:connector-curvature="0" />
  <path
     d="M -9.5596123,-39.943404 1.8248922,-46.099098 V -64.774179 Z"
     style="fill:#99ddff;fill-opacity:0.4"
     id="path162"
     inkscape:connector-curvature="0" />
  <path
     d="m -49.562041,-110.73691 75.110898,-40.61308 -143.658027,-36.62117 z M 120.3872,4.3703592 116.24211,3.3136952 V -152.25927 Z m -313.60727,-151.7284492 143.658029,36.62118 -68.547129,-77.23425 z"
     style="fill:#eeeeee;fill-opacity:0.32000002"
     id="path164"
     inkscape:connector-curvature="0" />
  <path
     d="m -193.22007,-147.35809 143.658029,36.62118"
     style="fill:none;stroke:#000000;stroke-width:1;stroke-linecap:round"
     id="path166"
     inkscape:connector-curvature="0" />
  <path
     d="M 1.8248892,-64.77418 -9.5596145,-39.943404 V -58.618486 Z"
     style="fill:#ffbbbb;fill-opacity:0.4"
     id="path168"
     inkscape:connector-curvature="0" />
  <path
     d="m -9.5596123,-58.618485 v 18.675081 L 1.8248922,-64.774179 Z"
     style="fill:#99ddff;fill-opacity:0.4"
     id="path170"
     inkscape:connector-curvature="0" />
  <path
     d="m -9.5596123,-58.618485 v 18.675081 m 5e-7,-10e-7 v -18.67508 m 0,18.67508 90.7319008,13.20365"
     style="fill:none;stroke:#000000;stroke-width:1;stroke-linecap:round"
     id="path172"
     inkscape:connector-curvature="0" />
  <path
     d="M 1.8248892,-46.099099 V -64.77418 l 79.3473968,38.034425 z"
     style="fill:#ffbbbb;fill-opacity:0.4"
     id="path174"
     inkscape:connector-curvature="0" />
  <path
     d="m -9.5596118,-58.618485 90.7319008,31.87873"
     style="fill:none;stroke:#000000;stroke-width:1;stroke-linecap:round"
     id="path176"
     inkscape:connector-curvature="0" />
  <path
     d="M -9.5596145,-39.943404 1.8248892,-46.099099 81.172286,-26.739755 Z"
     style="fill:#ffbbbb;fill-opacity:0.4"
     id="path178"
     inkscape:connector-curvature="0" />
  <path
     d="M -193.22007,-147.35809 V -24.146563 L -49.562041,-110.73691 Z"
     style="fill:#eeeeee;fill-opacity:0.32000002"
     id="path180"
     inkscape:connector-curvature="0" />
  <path
     d="m 1.8248892,-64.77418 -11.3845037,6.155694 90.7319005,31.878731 z"
     style="fill:#ffbbbb;fill-opacity:0.4"
     id="path182"
     inkscape:connector-curvature="0" />
  <path
     d="M 120.3872,-151.20261 V 4.3703592 L 116.24211,-152.25927 Z M 21.403373,54.593771 116.24211,3.3136952 l 4.14509,1.056664 z"
     style="fill:#eeeeee;fill-opacity:0.32000002"
     id="path184"
     inkscape:connector-curvature="0" />
  <path
     d="m -9.5596145,-58.618486 v 18.675082 l 90.7319005,13.203649 z"
     style="fill:#ffbbbb;fill-opacity:0.4"
     id="path186"
     inkscape:connector-curvature="0" />
  <path
     d="M -193.22007,-24.146563 -49.562041,12.474609 V -110.73691 Z"
     style="fill:#eeeeee;fill-opacity:0.32000002"
     id="path188"
     inkscape:connector-curvature="0" />
  <path
     d="m 116.24211,-152.25927 -94.838737,51.28008 m 98.983827,-50.22342 -4.14509,-1.05666 m 4.14509,1.05666 -94.838733,51.280079"
     style="fill:none;stroke:#000000;stroke-width:1;stroke-linecap:round"
     id="path190"
     inkscape:connector-curvature="0" />
  <path
     d="M 25.548467,55.650441 120.3872,4.3703592 V -151.20261 Z M -49.562041,-110.73691 V 12.474609 L 25.548857,-151.34999 Z"
     style="fill:#eeeeee;fill-opacity:0.32000002"
     id="path192"
     inkscape:connector-curvature="0" />
  <path
     d="M -49.562041,-110.73691 V 12.474609"
     style="fill:none;stroke:#000000;stroke-width:1;stroke-linecap:round"
     id="path194"
     inkscape:connector-curvature="0" />
  <path
     d="M 116.24211,-152.25927 V 3.3136952 L 21.403373,-100.97919 Z M 25.548467,55.650441 21.403373,54.593771 120.3872,4.3703592 Z"
     style="fill:#eeeeee;fill-opacity:0.32000002"
     id="path196"
     inkscape:connector-curvature="0" />
  <path
     d="m -878.53366,-187.13576 -28.7316,-7.32424 m 0,0 -19.72784,10.66701 m 19.72784,-225.67182 V -194.46"
     style="fill:none;stroke:#000000;stroke-width:1;stroke-linecap:round"
     id="path198"
     inkscape:connector-curvature="0" />
  <path
     d="M 116.24211,3.3136952 21.403373,54.593771 V -100.97919 Z M 25.548467,-99.922531 120.3872,-151.20261 l -4.14509,-1.05666 z"
     style="fill:#eeeeee;fill-opacity:0.32000002"
     id="path200"
     inkscape:connector-curvature="0" />
  <path
     d="m -926.9931,-183.79299 19.72784,-10.66701 28.7316,7.32424 z"
     style="fill:#eeeeee;fill-opacity:0.32000002"
     id="path204"
     inkscape:connector-curvature="0" />
  <path
     d="m -878.53366,-187.13576 -19.72784,10.667 m 19.72784,-225.67182 v 215.00482 m -48.45944,-211.66205 v 215.00482 m 0,0 28.7316,7.32423"
     style="fill:none;stroke:#000000;stroke-width:1;stroke-linecap:round"
     id="path206"
     inkscape:connector-curvature="0"
     sodipodi:nodetypes="cccccccc" />
  <path
     d="M 25.548467,-99.922531 V 55.650441 L 120.3872,-151.20261 Z"
     style="fill:#eeeeee;fill-opacity:0.32000002"
     id="path208"
     inkscape:connector-curvature="0" />
  <path
     d="M 25.548467,-99.922531 V 55.650441"
     style="fill:none;stroke:#000000;stroke-width:1;stroke-linecap:round"
     id="path210"
     inkscape:connector-curvature="0" />
  <path
     d="m -898.2615,-176.46876 -28.7316,-7.32423 48.45944,-3.34277 z m 19.72784,-10.667 -28.7316,-7.32424 v -215.00481 z"
     style="fill:#eeeeee;fill-opacity:0.32000002"
     id="path212"
     inkscape:connector-curvature="0" />
  <path
     d="m -795.63177,-95.516925 -19.72784,10.667005 m 19.72784,-366.64296 v 355.975955 m 28.7316,7.324235 -28.7316,-7.324235"
     style="fill:none;stroke:#000000;stroke-width:1;stroke-linecap:round"
     id="path216"
     inkscape:connector-curvature="0" />
  <path
     d="m -898.2615,-391.47357 v 215.00481"
     style="fill:none;stroke:#000000;stroke-width:1;stroke-linecap:round"
     id="path220"
     inkscape:connector-curvature="0" />
  <path
     d="m 29.662004,-91.132364 4.145094,1.056663 90.693642,-52.336739 z M 186.28552,88.506701 166.55768,99.173711 V -115.8311 Z"
     style="fill:#eeeeee;fill-opacity:0.32000002"
     id="path222"
     inkscape:connector-curvature="0" />
  <path
     d="m -766.90017,-88.19269 -19.72784,10.667005 m 19.72784,-366.642965 v 355.97596"
     style="fill:none;stroke:#000000;stroke-width:1;stroke-linecap:round"
     id="path228"
     inkscape:connector-curvature="0" />
  <path
     d="m -815.35961,-84.84992 28.7316,7.324235 m -28.7316,-363.300185 v 355.97595"
     style="fill:none;stroke:#000000;stroke-width:1;stroke-linecap:round"
     id="path232"
     inkscape:connector-curvature="0" />
  <path
     d="m -786.62801,-77.525685 -28.7316,-7.324235 48.45944,-3.34277 z"
     style="fill:#eeeeee;fill-opacity:0.32000002"
     id="path234"
     inkscape:connector-curvature="0" />
  <path
     d="m -884.25248,-288.24801 46.97773,11.97552 m -41.2589,-125.86809 -28.73161,-7.32423 m 0,0 -19.72784,10.667 m 140.36509,-34.70383 v 355.975955"
     style="fill:none;stroke:#000000;stroke-width:1;stroke-linecap:round"
     id="path236"
     inkscape:connector-curvature="0"
     sodipodi:nodetypes="cccccccc" />
  <path
     d="m -878.53366,-402.14057 -19.72784,10.667"
     style="fill:none;stroke:#000000;stroke-width:1;stroke-linecap:round"
     id="path240"
     inkscape:connector-curvature="0" />
  <path
     d="m -898.2615,-391.47357 19.72784,-10.66701 -28.7316,-7.32423 z m 102.62973,295.956645 -19.72784,10.667005 v -355.97595 z m -131.36133,-303.280885 28.7316,7.32424 -9.00376,-17.99124 z"
     style="fill:#eeeeee;fill-opacity:0.32000002"
     id="path242"
     inkscape:connector-curvature="0" />
  <path
     d="m -926.9931,-398.7978 28.7316,7.32423"
     style="fill:none;stroke:#000000;stroke-width:1;stroke-linecap:round"
     id="path244"
     inkscape:connector-curvature="0" />
  <path
     d="m -844.04182,-269.00666 6.76707,4.4061 27.63396,-4.6275 z m 10.94935,-18.97001 -8.36456,4.52279 31.81624,14.22582 z"
     style="fill:#000000"
     id="path246"
     inkscape:connector-curvature="0" />
  <path
     d="m -786.62801,-77.525685 19.72784,-10.667005 v -355.97596 z"
     style="fill:#eeeeee;fill-opacity:0.32000002"
     id="path248"
     inkscape:connector-curvature="0" />
  <path
     d="m -841.45703,-283.45388 -2.58479,14.44722 34.40103,-0.2214 z"
     style="fill:#000000"
     id="path250"
     inkscape:connector-curvature="0" />
  <path
     d="m -815.35961,-84.84992 28.7316,7.324235 V -433.50164 Z m 19.72784,-366.64296 v 355.975955 l -19.72784,-345.308945 z m 28.7316,7.32423 v 355.97596 l -28.7316,-363.30019 z m -48.45944,3.34278 v 355.97595 l 28.7316,-348.65172 z m 28.7316,7.32423 v 355.975955 l 19.72784,-366.642965 z"
     style="fill:#eeeeee;fill-opacity:0.32000002"
     id="path252"
     inkscape:connector-curvature="0" />
  <path
     d="m -766.90017,-444.16865 -28.7316,-7.32423 m 0,0 -19.72784,10.66701 m 48.45944,-3.34278 -19.72784,10.66701"
     style="fill:none;stroke:#000000;stroke-width:1;stroke-linecap:round"
     id="path254"
     inkscape:connector-curvature="0" />
  <path
     d="m -786.62801,-433.50164 19.72784,-10.66701 -28.7316,-7.32423 z m -28.7316,-7.32423 28.7316,7.32423 -9.00376,-17.99124 z"
     style="fill:#eeeeee;fill-opacity:0.32000002"
     id="path256"
     inkscape:connector-curvature="0" />
  <path
     d="m -815.35961,-440.82587 28.7316,7.32423"
     style="fill:none;stroke:#000000;stroke-width:1;stroke-linecap:round"
     id="path258"
     inkscape:connector-curvature="0" />
  <path
     inkscape:connector-curvature="0"
     id="path594"
     style="fill:none;stroke:#000000;stroke-width:1;stroke-linecap:round"
     d="m 21.403373,54.593771 4.1451,1.05667 M 21.403373,-100.9792 V 54.593771"
     sodipodi:nodetypes="cccc" />
  <text
     xml:space="preserve"
     style="font-style:normal;font-variant:normal;font-weight:normal;font-stretch:normal;font-size:16px;line-height:1.25;font-family:sans-serif;-inkscape-font-specification:'sans-serif, Normal';font-variant-ligatures:normal;font-variant-caps:normal;font-variant-numeric:normal;font-feature-settings:normal;text-align:start;letter-spacing:0px;word-spacing:0px;writing-mode:lr-tb;text-anchor:start;fill:#000000;fill-opacity:1;stroke:none"
     x="54.423519"
     y="-129.98289"
     id="text268"
     inkscape:export-xdpi="96"
     inkscape:export-ydpi="96"><tspan
       sodipodi:role="line"
       id="tspan1136"
       x="54.423519"
       y="-129.98289">28</tspan></text>
  <path
     d="m -775.94409,-258.44358 55.91882,16.15474"
     style="fill:none;stroke:#000000;stroke-width:1.26717281;stroke-linecap:round"
     id="path202"
     inkscape:connector-curvature="0" />
  <text
     xml:space="preserve"
     style="font-style:normal;font-variant:normal;font-weight:normal;font-stretch:normal;font-size:16px;line-height:1.25;font-family:sans-serif;-inkscape-font-specification:'sans-serif, Normal';font-variant-ligatures:normal;font-variant-caps:normal;font-variant-numeric:normal;font-feature-settings:normal;text-align:start;letter-spacing:0px;word-spacing:0px;writing-mode:lr-tb;text-anchor:start;fill:#000000;fill-opacity:1;stroke:none"
     x="-170.38264"
     y="-172.6736"
     id="text268-9"
     inkscape:export-xdpi="96"
     inkscape:export-ydpi="96"><tspan
       sodipodi:role="line"
       id="tspan1132"
       x="-170.38264"
       y="-172.6736">14</tspan><tspan
       sodipodi:role="line"
       id="tspan1134"
       x="-170.38264"
       y="-152.6736"></tspan></text>
  <text
     xml:space="preserve"
     style="font-style:normal;font-variant:normal;font-weight:normal;font-stretch:normal;font-size:16px;line-height:1.25;font-family:sans-serif;-inkscape-font-specification:'sans-serif, Normal';font-variant-ligatures:normal;font-variant-caps:normal;font-variant-numeric:normal;font-feature-settings:normal;text-align:start;letter-spacing:0px;word-spacing:0px;writing-mode:lr-tb;text-anchor:start;fill:#000000;fill-opacity:1;stroke:none"
     x="-2.4408596"
     y="15.916193"
     id="text268-6"
     inkscape:export-xdpi="96"
     inkscape:export-ydpi="96"><tspan
       y="15.916193"
       x="-2.4408596"
       sodipodi:role="line"
       id="tspan1136-8">28</tspan></text>
  <text
     xml:space="preserve"
     style="font-style:normal;font-variant:normal;font-weight:normal;font-stretch:normal;font-size:16px;line-height:1.25;font-family:sans-serif;-inkscape-font-specification:'sans-serif, Normal';font-variant-ligatures:normal;font-variant-caps:normal;font-variant-numeric:normal;font-feature-settings:normal;text-align:start;letter-spacing:0px;word-spacing:0px;writing-mode:lr-tb;text-anchor:start;fill:#000000;fill-opacity:1;stroke:none"
     x="-219.05803"
     y="-57.511421"
     id="text268-9-0"
     inkscape:export-xdpi="96"
     inkscape:export-ydpi="96"><tspan
       y="-57.511421"
       x="-219.05803"
       sodipodi:role="line"
       id="tspan1132-2">14</tspan><tspan
       y="-37.511421"
       x="-219.05803"
       sodipodi:role="line"
       id="tspan1134-1" /></text>
  <text
     xml:space="preserve"
     style="font-style:normal;font-variant:normal;font-weight:normal;font-stretch:normal;font-size:16px;line-height:1.25;font-family:sans-serif;-inkscape-font-specification:'sans-serif, Normal';font-variant-ligatures:normal;font-variant-caps:normal;font-variant-numeric:normal;font-feature-settings:normal;text-align:start;letter-spacing:0px;word-spacing:0px;writing-mode:lr-tb;text-anchor:start;fill:#000000;fill-opacity:1;stroke:none"
     x="-424.06528"
     y="-215.60159"
     id="text268-9-05"
     inkscape:export-xdpi="96"
     inkscape:export-ydpi="96"><tspan
       sodipodi:role="line"
       id="tspan1223"
       x="-424.06528"
       y="-215.60159">7</tspan><tspan
       sodipodi:role="line"
       id="tspan1225"
       x="-424.06528"
       y="-195.60159"></tspan></text>
  <text
     xml:space="preserve"
     style="font-style:normal;font-variant:normal;font-weight:normal;font-stretch:normal;font-size:16px;line-height:1.25;font-family:sans-serif;-inkscape-font-specification:'sans-serif, Normal';font-variant-ligatures:normal;font-variant-caps:normal;font-variant-numeric:normal;font-feature-settings:normal;text-align:start;letter-spacing:0px;word-spacing:0px;writing-mode:lr-tb;text-anchor:start;fill:#000000;fill-opacity:1;stroke:none"
     x="-454.66339"
     y="-157.46521"
     id="text268-9-05-8"
     inkscape:export-xdpi="96"
     inkscape:export-ydpi="96"><tspan
       sodipodi:role="line"
       id="tspan1219"
       x="-454.66339"
       y="-157.46521">7</tspan><tspan
       sodipodi:role="line"
       id="tspan1221"
       x="-454.66339"
       y="-137.46521"></tspan></text>
  <text
     xml:space="preserve"
     style="font-style:normal;font-variant:normal;font-weight:normal;font-stretch:normal;font-size:16px;line-height:1.25;font-family:sans-serif;-inkscape-font-specification:'sans-serif, Normal';font-variant-ligatures:normal;font-variant-caps:normal;font-variant-numeric:normal;font-feature-settings:normal;text-align:start;letter-spacing:0px;word-spacing:0px;writing-mode:lr-tb;text-anchor:start;fill:#000000;fill-opacity:1;stroke:none"
     x="-706.1366"
     y="-276.79776"
     id="text268-9-05-6"
     inkscape:export-xdpi="96"
     inkscape:export-ydpi="96"><tspan
       sodipodi:role="line"
       id="tspan1225-6"
       x="-706.1366"
       y="-276.79776">4</tspan></text>
  <text
     xml:space="preserve"
     style="font-style:normal;font-variant:normal;font-weight:normal;font-stretch:normal;font-size:16px;line-height:1.25;font-family:sans-serif;-inkscape-font-specification:'sans-serif, Normal';font-variant-ligatures:normal;font-variant-caps:normal;font-variant-numeric:normal;font-feature-settings:normal;text-align:start;letter-spacing:0px;word-spacing:0px;writing-mode:lr-tb;text-anchor:start;fill:#000000;fill-opacity:1;stroke:none"
     x="-728.5752"
     y="-219.68134"
     id="text268-9-05-6-2"
     inkscape:export-xdpi="96"
     inkscape:export-ydpi="96"><tspan
       sodipodi:role="line"
       id="tspan1223-4-5"
       x="-728.5752"
       y="-219.68134">4</tspan><tspan
       sodipodi:role="line"
       id="tspan1225-6-8"
       x="-728.5752"
       y="-199.68134" /></text>
  <text
     xml:space="preserve"
     style="font-style:normal;font-variant:normal;font-weight:normal;font-stretch:normal;font-size:16px;line-height:1.25;font-family:sans-serif;-inkscape-font-specification:'sans-serif, Normal';font-variant-ligatures:normal;font-variant-caps:normal;font-variant-numeric:normal;font-feature-settings:normal;text-align:start;letter-spacing:0px;word-spacing:0px;writing-mode:lr-tb;text-anchor:start;fill:#000000;fill-opacity:1;stroke:none"
     x="-814.3103"
     y="-62.618919"
     id="text268-62"
     inkscape:export-xdpi="96"
     inkscape:export-ydpi="96"><tspan
       sodipodi:role="line"
       id="tspan1289"
       x="-814.3103"
       y="-62.618919">2048</tspan></text>
  <text
     xml:space="preserve"
     style="font-style:normal;font-variant:normal;font-weight:normal;font-stretch:normal;font-size:16px;line-height:1.25;font-family:sans-serif;-inkscape-font-specification:'sans-serif, Normal';font-variant-ligatures:normal;font-variant-caps:normal;font-variant-numeric:normal;font-feature-settings:normal;text-align:start;letter-spacing:0px;word-spacing:0px;writing-mode:lr-tb;text-anchor:start;fill:#000000;fill-opacity:1;stroke:none"
     x="-919.38922"
     y="-160.53966"
     id="text268-62-7"
     inkscape:export-xdpi="96"
     inkscape:export-ydpi="96"><tspan
       sodipodi:role="line"
       id="tspan1309"
       x="-919.38922"
       y="-160.53966">100</tspan></text>
  <text
     xml:space="preserve"
     style="font-style:normal;font-variant:normal;font-weight:normal;font-stretch:normal;font-size:16px;line-height:1.25;font-family:sans-serif;-inkscape-font-specification:'sans-serif, Normal';font-variant-ligatures:normal;font-variant-caps:normal;font-variant-numeric:normal;font-feature-settings:normal;text-align:start;letter-spacing:0px;word-spacing:0px;writing-mode:lr;text-anchor:start;fill:#000000;fill-opacity:1;stroke:none;"
     x="-134.30136"
     y="9.7989941"
     id="text268-6-5"
     inkscape:export-xdpi="96"
     inkscape:export-ydpi="96"><tspan
       sodipodi:role="line"
       id="tspan1329">32</tspan></text>
  <text
     xml:space="preserve"
     style="font-style:normal;font-variant:normal;font-weight:normal;font-stretch:normal;font-size:16px;line-height:1.25;font-family:sans-serif;-inkscape-font-specification:'sans-serif, Normal';font-variant-ligatures:normal;font-variant-caps:normal;font-variant-numeric:normal;font-feature-settings:normal;text-align:start;letter-spacing:0px;word-spacing:0px;writing-mode:lr;text-anchor:start;fill:#000000;fill-opacity:1;stroke:none;"
     x="-369.18341"
     y="-73.86068"
     id="text268-6-5-7"
     inkscape:export-xdpi="96"
     inkscape:export-ydpi="96"><tspan
       sodipodi:role="line"
       id="tspan1349">64</tspan></text>
  <text
     xml:space="preserve"
     style="font-style:normal;font-variant:normal;font-weight:normal;font-stretch:normal;font-size:16px;line-height:1.25;font-family:sans-serif;-inkscape-font-specification:'sans-serif, Normal';font-variant-ligatures:normal;font-variant-caps:normal;font-variant-numeric:normal;font-feature-settings:normal;text-align:start;letter-spacing:0px;word-spacing:0px;writing-mode:lr-tb;text-anchor:start;fill:#000000;fill-opacity:1;stroke:none"
     x="-636.88727"
     y="-158.96275"
     id="text268-6-5-7-3"
     inkscape:export-xdpi="96"
     inkscape:export-ydpi="96"><tspan
       sodipodi:role="line"
       id="tspan1369"
       x="-636.88727"
       y="-158.96275">128</tspan></text>
</svg>
