<?xml version="1.0" encoding="UTF-8" standalone="no"?>
<svg
   xmlns:dc="http://purl.org/dc/elements/1.1/"
   xmlns:cc="http://creativecommons.org/ns#"
   xmlns:rdf="http://www.w3.org/1999/02/22-rdf-syntax-ns#"
   xmlns:svg="http://www.w3.org/2000/svg"
   xmlns="http://www.w3.org/2000/svg"
   xmlns:sodipodi="http://sodipodi.sourceforge.net/DTD/sodipodi-0.dtd"
   xmlns:inkscape="http://www.inkscape.org/namespaces/inkscape"
   viewBox="-927.5 -452 1855 904"
   width="1855"
   height="904"
   style="background-color: rgb(255, 255, 255);"
   version="1.1"
   id="svg258"
   sodipodi:docname="networkD.svg"
   inkscape:version="0.92.4 (unknown)">
  <metadata
     id="metadata264">
    <rdf:RDF>
      <cc:Work
         rdf:about="">
        <dc:format>image/svg+xml</dc:format>
        <dc:type
           rdf:resource="http://purl.org/dc/dcmitype/StillImage" />
        <dc:title></dc:title>
      </cc:Work>
    </rdf:RDF>
  </metadata>
  <defs
     id="defs262" />
  <sodipodi:namedview
     pagecolor="#ffffff"
     bordercolor="#666666"
     borderopacity="1"
     objecttolerance="10"
     gridtolerance="10"
     guidetolerance="10"
     inkscape:pageopacity="0"
     inkscape:pageshadow="2"
     inkscape:window-width="1855"
     inkscape:window-height="1056"
     id="namedview260"
     showgrid="false"
     inkscape:zoom="1.2636119"
     inkscape:cx="981.94433"
     inkscape:cy="371.90847"
     inkscape:window-x="65"
     inkscape:window-y="24"
     inkscape:window-maximized="1"
     inkscape:current-layer="svg258"
     inkscape:snap-text-baseline="true" />
  <path
     d="M-162.4511928006941,-10.415528951617391L-235.8356000776873,29.2640181382159M-159.24379794777903,-9.59790276482486L-162.4511928006941,-10.415528951617391M-162.4511928006941,-130.7949261319767L-162.4511928006941,-10.415528951617391M-159.24379794777903,-129.97729994518417L-159.24379794777903,-9.59790276482486M-159.24379794777903,-9.59790276482486L-232.62820522477224,30.08164432500844"
     style="fill:none;stroke:rgb(0,0,0);stroke-width:1;stroke-linecap:round"
     id="path2"
     inkscape:export-xdpi="96"
     inkscape:export-ydpi="96" />
  <path
     d="M-159.24379794777903,-9.597902764824859L-162.4511928006941,-10.41552895161739L-162.4511928006941,-130.79492613197667zM-159.24379794777903,-129.97729994518417L-159.24379794777903,-9.597902764824859L-162.4511928006941,-130.79492613197667zM-235.83560007768733,29.264018138215906L-162.4511928006941,-10.41552895161739L-159.24379794777903,-9.597902764824859z"
     style="fill:rgb(238,238,238); fill-opacity: 0.32"
     id="path4"
     inkscape:export-xdpi="96"
     inkscape:export-ydpi="96" />
  <path
     d="M-175.30241165386673,-53.39634667026026L-184.1115238987837,-48.63318788609991M-172.09501680095173,-52.57872048346773L-175.30241165386673,-53.39634667026026M-175.30241165386673,-67.84676823917147L-175.30241165386673,-53.39634667026026M-173.6987084073448,-52.98753225370788L-182.50782065226178,-48.22437346954754M-173.6987084073448,-67.43795382261908L-173.6987084073448,-52.98753225370788M-173.6987084073448,-52.98753225370788L-117.9984285771384,-39.92382951997657M-172.09501680095173,-52.57872048346773L-180.9041290458687,-47.81556169930739M-172.09501680095173,-67.02914205237894L-172.09501680095173,-52.57872048346773"
     style="fill:none;stroke:rgb(0,0,0);stroke-width:1;stroke-linecap:round"
     id="path6"
     inkscape:export-xdpi="96"
     inkscape:export-ydpi="96" />
  <path
     d="M-172.09501680095173,-52.578720483467734L-175.30241165386676,-53.396346670260264L-175.30241165386676,-67.84676823917147zM-184.11152389878373,-48.63318788609992L-175.30241165386676,-53.396346670260264L-172.09501680095173,-52.578720483467734zM-172.09501680095173,-67.02914205237894L-172.09501680095173,-52.578720483467734L-175.30241165386676,-67.84676823917147z"
     style="fill:rgb(153,221,255); fill-opacity: 0.4"
     id="path8"
     inkscape:export-xdpi="96"
     inkscape:export-ydpi="96" />
  <path
     d="M-175.30241165386673,-67.84676823917147L-184.1115238987837,-63.083609455011135M-172.09501680095173,-67.02914205237894L-175.30241165386673,-67.84676823917147M-173.6987084073448,-67.43795382261908L-182.50782065226178,-62.67479503845875M-173.6987084073448,-67.43795382261908L-117.9984285771384,-39.92382951997657"
     style="fill:none;stroke:rgb(0,0,0);stroke-width:1;stroke-linecap:round"
     id="path10"
     inkscape:export-xdpi="96"
     inkscape:export-ydpi="96" />
  <path
     d="M-173.69871422740923,-67.4379551457752L-173.69871422740923,-52.987533576864L-182.50782647232623,-48.224374792703664z"
     style="fill:rgb(255,187,187); fill-opacity: 0.4"
     id="path12"
     inkscape:export-xdpi="96"
     inkscape:export-ydpi="96" />
  <path
     d="M-172.09501680095173,-67.02914205237894L-180.9041290458687,-62.26598326821859"
     style="fill:none;stroke:rgb(0,0,0);stroke-width:1;stroke-linecap:round"
     id="path14"
     inkscape:export-xdpi="96"
     inkscape:export-ydpi="96" />
  <path
     d="M-175.30241165386676,-67.84676823917147L-175.30241165386676,-53.396346670260264L-184.11152389878373,-63.083609455011135zM-180.9041290458687,-47.81556169930739L-172.09501680095173,-52.578720483467734L-172.09501680095173,-67.02914205237894zM-180.9041290458687,-47.81556169930739L-184.11152389878373,-48.63318788609992L-172.09501680095173,-52.578720483467734zM-175.30241165386676,-53.396346670260264L-184.11152389878373,-48.63318788609992L-184.11152389878373,-63.083609455011135z"
     style="fill:rgb(153,221,255); fill-opacity: 0.4"
     id="path16"
     inkscape:export-xdpi="96"
     inkscape:export-ydpi="96" />
  <path
     d="M-162.4511928006941,-130.7949261319767L-235.8356000776873,-91.11537904214337M-159.24379794777903,-129.97729994518417L-162.4511928006941,-130.7949261319767"
     style="fill:none;stroke:rgb(0,0,0);stroke-width:1;stroke-linecap:round"
     id="path18"
     inkscape:export-xdpi="96"
     inkscape:export-ydpi="96" />
  <path
     d="M-180.9041290458687,-62.265983268218605L-172.09501680095173,-67.02914205237894L-175.30241165386676,-67.84676823917147z"
     style="fill:rgb(153,221,255); fill-opacity: 0.4"
     id="path20"
     inkscape:export-xdpi="96"
     inkscape:export-ydpi="96" />
  <path
     d="M-184.1115238987837,-48.63318788609991L-180.9041290458687,-47.81556169930739M-184.1115238987837,-63.083609455011135L-184.1115238987837,-48.63318788609991"
     style="fill:none;stroke:rgb(0,0,0);stroke-width:1;stroke-linecap:round"
     id="path22"
     inkscape:export-xdpi="96"
     inkscape:export-ydpi="96" />
  <path
     d="M-173.69871422740923,-67.4379551457752L-182.50782647232623,-48.224374792703664L-182.50782647232623,-62.67479636161486z"
     style="fill:rgb(255,187,187); fill-opacity: 0.4"
     id="path24"
     inkscape:export-xdpi="96"
     inkscape:export-ydpi="96" />
  <path
     d="M-159.24379794777903,-129.97729994518417L-232.62820522477224,-90.29775285535086M-182.50782065226178,-48.22437346954754L-182.50782065226178,-62.67479503845875M-182.50782065226178,-48.22437346954754L-117.9984285771384,-39.92382951997657"
     style="fill:none;stroke:rgb(0,0,0);stroke-width:1;stroke-linecap:round"
     id="path26"
     inkscape:export-xdpi="96"
     inkscape:export-ydpi="96" />
  <path
     d="M-232.6282052247723,30.081644325008437L-159.24379794777903,-9.597902764824859L-159.24379794777903,-129.97729994518417z"
     style="fill:rgb(238,238,238); fill-opacity: 0.32"
     id="path28"
     inkscape:export-xdpi="96"
     inkscape:export-ydpi="96" />
  <path
     d="M-180.9041290458687,-62.265983268218605L-180.9041290458687,-47.81556169930739L-172.09501680095173,-67.02914205237894z"
     style="fill:rgb(153,221,255); fill-opacity: 0.4"
     id="path30"
     inkscape:export-xdpi="96"
     inkscape:export-ydpi="96" />
  <path
     d="M-180.9041290458687,-62.26598326821859L-180.9041290458687,-47.81556169930739"
     style="fill:none;stroke:rgb(0,0,0);stroke-width:1;stroke-linecap:round"
     id="path32"
     inkscape:export-xdpi="96"
     inkscape:export-ydpi="96" />
  <path
     d="M-184.11152389878373,-63.083609455011135L-180.9041290458687,-62.265983268218605L-175.30241165386676,-67.84676823917147zM-184.11152389878373,-48.63318788609992L-180.9041290458687,-47.81556169930739L-180.9041290458687,-62.265983268218605zM-184.11152389878373,-63.083609455011135L-184.11152389878373,-48.63318788609992L-180.9041290458687,-62.265983268218605z"
     style="fill:rgb(153,221,255); fill-opacity: 0.4"
     id="path34"
     inkscape:export-xdpi="96"
     inkscape:export-ydpi="96" />
  <path
     d="M-184.1115238987837,-63.083609455011135L-180.9041290458687,-62.26598326821859M-182.50782065226178,-62.67479503845875L-117.9984285771384,-39.92382951997657M6.827725212625537,26.289200136304054L-104.33211311366051,-2.047565027670972M-104.33211311366051,-97.38629316348803L-104.33211311366051,-2.047565027670972M-104.33211311366051,-2.047565027670972L-162.45149415946324,29.378057970607237"
     style="fill:none;stroke:rgb(0,0,0);stroke-width:1;stroke-linecap:round"
     id="path36"
     inkscape:export-xdpi="96"
     inkscape:export-ydpi="96" />
  <path
     d="M-173.69871422740923,-52.987533576864L-173.69871422740923,-67.4379551457752L-117.99843418014103,-39.9238311170273zM-182.50782647232623,-48.224374792703664L-173.69871422740923,-52.987533576864L-117.99843418014103,-39.9238311170273zM-173.69871422740923,-67.4379551457752L-182.50782647232623,-62.67479636161486L-117.99843418014103,-39.9238311170273z"
     style="fill:rgb(255,187,187); fill-opacity: 0.4"
     id="path38"
     inkscape:export-xdpi="96"
     inkscape:export-ydpi="96" />
  <path
     d="M-162.4511928006941,-130.79492613197667L-162.4511928006941,-10.41552895161739L-235.83560007768733,-91.11537904214337z"
     style="fill:rgb(238,238,238); fill-opacity: 0.32"
     id="path40"
     inkscape:export-xdpi="96"
     inkscape:export-ydpi="96" />
  <path
     d="M-182.50782647232623,-62.67479636161486L-182.50782647232623,-48.224374792703664L-117.99843418014103,-39.9238311170273z"
     style="fill:rgb(255,187,187); fill-opacity: 0.4"
     id="path42"
     inkscape:export-xdpi="96"
     inkscape:export-ydpi="96" />
  <path
     d="M-232.6282052247723,30.081644325008437L-235.83560007768733,29.264018138215906L-159.24379794777903,-9.597902764824859z"
     style="fill:rgb(238,238,238); fill-opacity: 0.32"
     id="path44"
     inkscape:export-xdpi="96"
     inkscape:export-ydpi="96" />
  <path
     d="M-106.73455564754393,-22.577164972406642L-115.5436678924609,-17.8140061882463M4.425282678742144,5.759600191568385L-106.73455564754393,-22.577164972406642M-106.73455564754393,-37.02758654131785L-106.73455564754393,-22.577164972406642M-106.73455564754393,-37.02758654131785L-115.5436678924609,-32.26442775715751M4.425282678742144,-8.690821377342827L-106.73455564754393,-37.02758654131785"
     style="fill:none;stroke:rgb(0,0,0);stroke-width:1;stroke-linecap:round"
     id="path46"
     inkscape:export-xdpi="96"
     inkscape:export-ydpi="96" />
  <path
     d="M-106.7345556475439,-37.02758654131785L-106.7345556475439,-22.577164972406642L-115.54366789246087,-32.26442775715751zM-106.7345556475439,-22.577164972406642L-115.54366789246087,-17.8140061882463L-115.54366789246087,-32.26442775715751z"
     style="fill:rgb(153,221,255); fill-opacity: 0.4"
     id="path48"
     inkscape:export-xdpi="96"
     inkscape:export-ydpi="96" />
  <path
     d="M-115.5436678924609,-32.26442775715751L-115.5436678924609,-17.8140061882463M-115.5436678924609,-17.8140061882463L-4.383829566174841,10.52275897572873"
     style="fill:none;stroke:rgb(0,0,0);stroke-width:1;stroke-linecap:round"
     id="path50"
     inkscape:export-xdpi="96"
     inkscape:export-ydpi="96" />
  <path
     d="M-162.4511928006941,-10.41552895161739L-235.83560007768733,29.264018138215906L-235.83560007768733,-91.11537904214337zM-232.6282052247723,-90.29775285535085L-159.24379794777903,-129.97729994518417L-162.4511928006941,-130.79492613197667z"
     style="fill:rgb(238,238,238); fill-opacity: 0.32"
     id="path52"
     inkscape:export-xdpi="96"
     inkscape:export-ydpi="96" />
  <path
     d="M-115.5436678924609,-32.26442775715751L-4.383829566174841,-3.927662593182482"
     style="fill:none;stroke:rgb(0,0,0);stroke-width:1;stroke-linecap:round"
     id="path54"
     inkscape:export-xdpi="96"
     inkscape:export-ydpi="96" />
  <path
     d="M6.827725212625542,26.289200136304057L-104.3321131136605,-2.0475650276709705L-104.3321131136605,-97.38629316348802z"
     style="fill:rgb(238,238,238); fill-opacity: 0.32"
     id="path56"
     inkscape:export-xdpi="96"
     inkscape:export-ydpi="96" />
  <path
     d="M4.425282678742137,5.759600191568385L-106.7345556475439,-22.577164972406642L-106.7345556475439,-37.02758654131785z"
     style="fill:rgb(153,221,255); fill-opacity: 0.4"
     id="path58"
     inkscape:export-xdpi="96"
     inkscape:export-ydpi="96" />
  <path
     d="M6.827725212625537,-69.04952799951299L-104.33211311366051,-97.38629316348803M-104.33211311366051,-97.38629316348803L-162.45149415946324,-65.9606701652098"
     style="fill:none;stroke:rgb(0,0,0);stroke-width:1;stroke-linecap:round"
     id="path60"
     inkscape:export-xdpi="96"
     inkscape:export-ydpi="96" />
  <path
     d="M-115.54366789246087,-17.8140061882463L-106.7345556475439,-22.577164972406642L4.425282678742137,5.759600191568385z"
     style="fill:rgb(153,221,255); fill-opacity: 0.4"
     id="path62"
     inkscape:export-xdpi="96"
     inkscape:export-ydpi="96" />
  <path
     d="M-235.8356000776873,29.2640181382159L-232.62820522477224,30.08164432500844M-235.8356000776873,-91.11537904214337L-235.8356000776873,29.2640181382159"
     style="fill:none;stroke:rgb(0,0,0);stroke-width:1;stroke-linecap:round"
     id="path64"
     inkscape:export-xdpi="96"
     inkscape:export-ydpi="96" />
  <path
     d="M-232.6282052247723,-90.29775285535085L-232.6282052247723,30.081644325008437L-159.24379794777903,-129.97729994518417z"
     style="fill:rgb(238,238,238); fill-opacity: 0.32"
     id="path66"
     inkscape:export-xdpi="96"
     inkscape:export-ydpi="96" />
  <path
     d="M-232.62820522477224,-90.29775285535086L-232.62820522477224,30.08164432500844"
     style="fill:none;stroke:rgb(0,0,0);stroke-width:1;stroke-linecap:round"
     id="path68"
     inkscape:export-xdpi="96"
     inkscape:export-ydpi="96" />
  <path
     d="M-115.54366789246087,-32.26442775715751L-4.383829566174844,-3.927662593182482L-106.7345556475439,-37.02758654131785z"
     style="fill:rgb(153,221,255); fill-opacity: 0.4"
     id="path70"
     inkscape:export-xdpi="96"
     inkscape:export-ydpi="96" />
  <path
     d="M-162.4514941594632,29.378057970607244L-104.3321131136605,-2.0475650276709705L6.827725212625542,26.289200136304057z"
     style="fill:rgb(238,238,238); fill-opacity: 0.32"
     id="path72"
     inkscape:export-xdpi="96"
     inkscape:export-ydpi="96" />
  <path
     d="M-115.54366789246087,-32.26442775715751L-115.54366789246087,-17.8140061882463L-4.383829566174844,-3.927662593182482z"
     style="fill:rgb(153,221,255); fill-opacity: 0.4"
     id="path74"
     inkscape:export-xdpi="96"
     inkscape:export-ydpi="96" />
  <path
     d="M-104.3321131136605,-97.38629316348802L-104.3321131136605,-2.0475650276709705L-162.4514941594632,-65.96067016520979zM-235.83560007768733,-91.11537904214337L-232.6282052247723,-90.29775285535085L-162.4511928006941,-130.79492613197667zM-235.83560007768733,29.264018138215906L-232.6282052247723,30.081644325008437L-232.6282052247723,-90.29775285535085z"
     style="fill:rgb(238,238,238); fill-opacity: 0.32"
     id="path76"
     inkscape:export-xdpi="96"
     inkscape:export-ydpi="96" />
  <path
     d="M4.425282678742137,-8.690821377342825L4.425282678742137,5.759600191568385L-106.7345556475439,-37.02758654131785z"
     style="fill:rgb(153,221,255); fill-opacity: 0.4"
     id="path78"
     inkscape:export-xdpi="96"
     inkscape:export-ydpi="96" />
  <path
     d="M-104.3321131136605,-2.0475650276709705L-162.4514941594632,29.378057970607244L-162.4514941594632,-65.96067016520979z"
     style="fill:rgb(238,238,238); fill-opacity: 0.32"
     id="path80"
     inkscape:export-xdpi="96"
     inkscape:export-ydpi="96" />
  <path
     d="M-4.383829566174844,10.522758975728731L-115.54366789246087,-17.8140061882463L4.425282678742137,5.759600191568385zM-4.383829566174844,-3.927662593182482L4.425282678742137,-8.690821377342825L-106.7345556475439,-37.02758654131785z"
     style="fill:rgb(153,221,255); fill-opacity: 0.4"
     id="path82"
     inkscape:export-xdpi="96"
     inkscape:export-ydpi="96" />
  <path
     d="M6.827725212625537,-69.04952799951299L6.827725212625537,26.289200136304054M6.827725212625537,26.289200136304054L-51.291655833177174,57.714823134582275"
     style="fill:none;stroke:rgb(0,0,0);stroke-width:1;stroke-linecap:round"
     id="path84"
     inkscape:export-xdpi="96"
     inkscape:export-ydpi="96" />
  <path
     d="M6.827725212625542,-69.04952799951299L6.827725212625542,26.289200136304057L-104.3321131136605,-97.38629316348802z"
     style="fill:rgb(238,238,238); fill-opacity: 0.32"
     id="path86"
     inkscape:export-xdpi="96"
     inkscape:export-ydpi="96" />
  <path
     d="M-115.54366789246087,-17.8140061882463L-4.383829566174844,10.522758975728731L-4.383829566174844,-3.927662593182482z"
     style="fill:rgb(153,221,255); fill-opacity: 0.4"
     id="path88"
     inkscape:export-xdpi="96"
     inkscape:export-ydpi="96" />
  <path
     d="M-235.83560007768733,-91.11537904214337L-235.83560007768733,29.264018138215906L-232.6282052247723,-90.29775285535085z"
     style="fill:rgb(238,238,238); fill-opacity: 0.32"
     id="path90"
     inkscape:export-xdpi="96"
     inkscape:export-ydpi="96" />
  <path
     d="M-162.45149415946324,29.378057970607237L-51.291655833177174,57.714823134582275M-162.45149415946324,-65.9606701652098L-162.45149415946324,29.378057970607237M4.4252805077544695,-8.690821744819704L4.4252805077544695,5.759599824091506M4.4252805077544695,5.759599824091506L58.32396282033279,15.539385456445242M4.4252805077544695,5.759599824091506L-4.383831737162509,10.522758608251852M4.425282678742144,5.759600191568385L-4.383829566174841,10.52275897572873M4.425282678742144,-8.690821377342827L4.425282678742144,5.759600191568385M4.4252805077544695,-8.690821744819704L58.32396282033279,15.539385456445242M4.4252805077544695,-8.690821744819704L-4.383831737162509,-3.927662960659362M4.425282678742144,-8.690821377342827L-4.383829566174841,-3.927662593182482"
     style="fill:none;stroke:rgb(0,0,0);stroke-width:1;stroke-linecap:round"
     id="path92"
     inkscape:export-xdpi="96"
     inkscape:export-ydpi="96" />
  <path
     d="M4.4252809966126305,-8.690821806149753L4.4252809966126305,5.759599762761456L-4.383831248304351,10.522758546921802z"
     style="fill:rgb(255,187,187); fill-opacity: 0.4"
     id="path94"
     inkscape:export-xdpi="96"
     inkscape:export-ydpi="96" />
  <path
     d="M-4.383829566174844,10.522758975728731L4.425282678742137,5.759600191568385L4.425282678742137,-8.690821377342825z"
     style="fill:rgb(153,221,255); fill-opacity: 0.4"
     id="path96"
     inkscape:export-xdpi="96"
     inkscape:export-ydpi="96" />
  <path
     d="M-235.8356000776873,-91.11537904214337L-232.62820522477224,-90.29775285535086"
     style="fill:none;stroke:rgb(0,0,0);stroke-width:1;stroke-linecap:round"
     id="path98"
     inkscape:export-xdpi="96"
     inkscape:export-ydpi="96" />
  <path
     d="M4.4252809966126305,-8.690821806149753L-4.383831248304351,10.522758546921802L-4.383831248304351,-3.92766302198941z"
     style="fill:rgb(255,187,187); fill-opacity: 0.4"
     id="path100"
     inkscape:export-xdpi="96"
     inkscape:export-ydpi="96" />
  <path
     d="M-4.383829566174844,-3.927662593182482L-4.383829566174844,10.522758975728731L4.425282678742137,-8.690821377342825z"
     style="fill:rgb(153,221,255); fill-opacity: 0.4"
     id="path102"
     inkscape:export-xdpi="96"
     inkscape:export-ydpi="96" />
  <path
     d="M-4.383831737162509,10.522758608251852L58.32396282033279,15.539385456445242M-4.383831737162509,10.522758608251852L-4.383831737162509,-3.927662960659362M-4.383829566174841,-3.927662593182482L-4.383829566174841,10.52275897572873"
     style="fill:none;stroke:rgb(0,0,0);stroke-width:1;stroke-linecap:round"
     id="path104"
     inkscape:export-xdpi="96"
     inkscape:export-ydpi="96" />
  <path
     d="M-51.291655833177174,57.714823134582275L-162.4514941594632,29.378057970607244L6.827725212625542,26.289200136304057z"
     style="fill:rgb(238,238,238); fill-opacity: 0.32"
     id="path106"
     inkscape:export-xdpi="96"
     inkscape:export-ydpi="96" />
  <path
     d="M-4.383831737162509,-3.927662960659362L58.32396282033279,15.539385456445242"
     style="fill:none;stroke:rgb(0,0,0);stroke-width:1;stroke-linecap:round"
     id="path108"
     inkscape:export-xdpi="96"
     inkscape:export-ydpi="96" />
  <path
     d="M4.4252809966126305,5.759599762761456L4.4252809966126305,-8.690821806149753L58.323962760377164,15.539385845741142zM-4.383831248304351,10.522758546921802L4.4252809966126305,5.759599762761456L58.323962760377164,15.539385845741142z"
     style="fill:rgb(255,187,187); fill-opacity: 0.4"
     id="path110"
     inkscape:export-xdpi="96"
     inkscape:export-ydpi="96" />
  <path
     d="M6.827725212625537,-69.04952799951299L-51.291655833177174,-37.623905001234775"
     style="fill:none;stroke:rgb(0,0,0);stroke-width:1;stroke-linecap:round"
     id="path112"
     inkscape:export-xdpi="96"
     inkscape:export-ydpi="96" />
  <path
     d="M-51.291655833177174,57.714823134582275L6.827725212625542,26.289200136304057L6.827725212625542,-69.04952799951299z"
     style="fill:rgb(238,238,238); fill-opacity: 0.32"
     id="path114"
     inkscape:export-xdpi="96"
     inkscape:export-ydpi="96" />
  <path
     d="M4.4252809966126305,-8.690821806149753L-4.383831248304351,-3.92766302198941L58.323962760377164,15.539385845741142z"
     style="fill:rgb(255,187,187); fill-opacity: 0.4"
     id="path116"
     inkscape:export-xdpi="96"
     inkscape:export-ydpi="96" />
  <path
     d="M-51.291655833177174,-37.623905001234775L6.827725212625542,-69.04952799951299L-104.3321131136605,-97.38629316348802z"
     style="fill:rgb(238,238,238); fill-opacity: 0.32"
     id="path118"
     inkscape:export-xdpi="96"
     inkscape:export-ydpi="96" />
  <path
     d="M-4.383831248304351,-3.92766302198941L-4.383831248304351,10.522758546921802L58.323962760377164,15.539385845741142z"
     style="fill:rgb(255,187,187); fill-opacity: 0.4"
     id="path120"
     inkscape:export-xdpi="96"
     inkscape:export-ydpi="96" />
  <path
     d="M-162.4514941594632,-65.96067016520979L-51.291655833177174,-37.623905001234775L-104.3321131136605,-97.38629316348802z"
     style="fill:rgb(238,238,238); fill-opacity: 0.32"
     id="path122"
     inkscape:export-xdpi="96"
     inkscape:export-ydpi="96" />
  <path
     d="M-162.45149415946324,-65.9606701652098L-51.291655833177174,-37.623905001234775M196.73490445183725,68.25246509183394L63.34310824848631,34.24834939026102M63.34310824848631,-36.04970281051585L63.34310824848631,34.24834939026102M63.34310824848631,34.24834939026102L20.488757634386136,57.420046025733065"
     style="fill:none;stroke:rgb(0,0,0);stroke-width:1;stroke-linecap:round"
     id="path124"
     inkscape:export-xdpi="96"
     inkscape:export-ydpi="96" />
  <path
     d="M-162.4514941594632,-65.96067016520979L-162.4514941594632,29.378057970607244L-51.291655833177174,-37.623905001234775zM-162.4514941594632,29.378057970607244L-51.291655833177174,57.714823134582275L-51.291655833177174,-37.623905001234775zM-51.291655833177174,-37.623905001234775L-51.291655833177174,57.714823134582275L6.827725212625542,-69.04952799951299z"
     style="fill:rgb(238,238,238); fill-opacity: 0.32"
     id="path126"
     inkscape:export-xdpi="96"
     inkscape:export-ydpi="96" />
  <path
     d="M-51.291655833177174,-37.623905001234775L-51.291655833177174,57.714823134582275M196.73490445183725,-2.0455871089429207L63.34310824848631,-36.04970281051585M63.34310824848631,-36.04970281051585L20.488757634386136,-12.878006175043799M57.66632289450282,-24.8663474997376L57.66632289450282,-14.02853132305419M191.05811909785376,19.97558437851874L57.66632289450282,-14.02853132305419M57.66632289450282,-14.02853132305419L51.059488710815096,-10.456162234933933M191.05811909785376,9.137768201835332L57.66632289450282,-24.8663474997376M57.66632289450282,-24.8663474997376L51.059488710815096,-21.293978411617342"
     style="fill:none;stroke:rgb(0,0,0);stroke-width:1;stroke-linecap:round"
     id="path128"
     inkscape:export-xdpi="96"
     inkscape:export-ydpi="96" />
  <path
     d="M57.666322894502834,-24.866347499737603L57.666322894502834,-14.028531323054194L51.059488710815096,-21.293978411617346zM57.666322894502834,-14.028531323054194L51.059488710815096,-10.456162234933936L51.059488710815096,-21.293978411617346z"
     style="fill:rgb(153,221,255); fill-opacity: 0.4"
     id="path130"
     inkscape:export-xdpi="96"
     inkscape:export-ydpi="96" />
  <path
     d="M51.059488710815096,-10.456162234933933L184.45128491416608,23.547953466638994M51.059488710815096,-21.293978411617342L51.059488710815096,-10.456162234933933"
     style="fill:none;stroke:rgb(0,0,0);stroke-width:1;stroke-linecap:round"
     id="path132"
     inkscape:export-xdpi="96"
     inkscape:export-ydpi="96" />
  <path
     d="M196.73490445183725,68.25246509183394L63.34310824848631,34.24834939026102L63.34310824848631,-36.04970281051585zM63.34310824848631,-36.04970281051585L63.34310824848631,34.24834939026102L20.48875763438614,-12.878006175043797z"
     style="fill:rgb(238,238,238); fill-opacity: 0.32"
     id="path134"
     inkscape:export-xdpi="96"
     inkscape:export-ydpi="96" />
  <path
     d="M51.059488710815096,-21.293978411617342L184.45128491416608,12.71013728995559"
     style="fill:none;stroke:rgb(0,0,0);stroke-width:1;stroke-linecap:round"
     id="path136"
     inkscape:export-xdpi="96"
     inkscape:export-ydpi="96" />
  <path
     d="M20.48875763438614,57.42004602573308L63.34310824848631,34.24834939026102L196.73490445183725,68.25246509183394zM63.34310824848631,34.24834939026102L20.48875763438614,57.42004602573308L20.48875763438614,-12.878006175043797z"
     style="fill:rgb(238,238,238); fill-opacity: 0.32"
     id="path138"
     inkscape:export-xdpi="96"
     inkscape:export-ydpi="96" />
  <path
     d="M20.488757634386136,57.420046025733065L153.88055383773707,91.424161727306M20.488757634386136,-12.878006175043799L20.488757634386136,57.420046025733065"
     style="fill:none;stroke:rgb(0,0,0);stroke-width:1;stroke-linecap:round"
     id="path140"
     inkscape:export-xdpi="96"
     inkscape:export-ydpi="96" />
  <path
     d="M191.05811909785376,19.975584378518736L57.666322894502834,-14.028531323054194L57.666322894502834,-24.866347499737603zM51.059488710815096,-10.456162234933936L57.666322894502834,-14.028531323054194L191.05811909785376,19.975584378518736zM51.059488710815096,-21.293978411617346L184.45128491416605,12.710137289955586L57.666322894502834,-24.866347499737603zM51.059488710815096,-21.293978411617346L51.059488710815096,-10.456162234933936L184.45128491416605,12.710137289955586z"
     style="fill:rgb(153,221,255); fill-opacity: 0.4"
     id="path142"
     inkscape:export-xdpi="96"
     inkscape:export-ydpi="96" />
  <path
     d="M196.73490445183725,-2.0455871089429194L196.73490445183725,68.25246509183394L63.34310824848631,-36.04970281051585z"
     style="fill:rgb(238,238,238); fill-opacity: 0.32"
     id="path144"
     inkscape:export-xdpi="96"
     inkscape:export-ydpi="96" />
  <path
     d="M196.73490445183725,68.25246509183394L153.88055383773707,91.424161727306M196.73490445183725,-2.0455871089429207L196.73490445183725,68.25246509183394M20.488757634386136,-12.878006175043799L153.88055383773707,21.12610952652913"
     style="fill:none;stroke:rgb(0,0,0);stroke-width:1;stroke-linecap:round"
     id="path146"
     inkscape:export-xdpi="96"
     inkscape:export-ydpi="96" />
  <path
     d="M191.05811909785376,9.13776820183533L191.05811909785376,19.975584378518736L57.666322894502834,-24.866347499737603zM184.45128491416605,23.547953466638994L51.059488710815096,-10.456162234933936L191.05811909785376,19.975584378518736zM184.45128491416605,12.710137289955586L191.05811909785376,9.13776820183533L57.666322894502834,-24.866347499737603z"
     style="fill:rgb(153,221,255); fill-opacity: 0.4"
     id="path148"
     inkscape:export-xdpi="96"
     inkscape:export-ydpi="96" />
  <path
     d="M20.48875763438614,-12.878006175043797L153.88055383773707,21.12610952652913L63.34310824848631,-36.04970281051585z"
     style="fill:rgb(238,238,238); fill-opacity: 0.32"
     id="path150"
     inkscape:export-xdpi="96"
     inkscape:export-ydpi="96" />
  <path
     d="M51.059488710815096,-10.456162234933936L184.45128491416605,23.547953466638994L184.45128491416605,12.710137289955586z"
     style="fill:rgb(153,221,255); fill-opacity: 0.4"
     id="path152"
     inkscape:export-xdpi="96"
     inkscape:export-ydpi="96" />
  <path
     d="M153.88055383773707,91.42416172730601L20.48875763438614,57.42004602573308L196.73490445183725,68.25246509183394zM153.88055383773707,21.12610952652913L196.73490445183725,-2.0455871089429194L63.34310824848631,-36.04970281051585zM20.48875763438614,-12.878006175043797L20.48875763438614,57.42004602573308L153.88055383773707,21.12610952652913z"
     style="fill:rgb(238,238,238); fill-opacity: 0.32"
     id="path154"
     inkscape:export-xdpi="96"
     inkscape:export-ydpi="96" />
  <path
     d="M196.73490445183725,-2.0455871089429207L153.88055383773707,21.12610952652913M191.05811909785376,19.97558437851874L184.45128491416608,23.547953466638994M191.05811909785376,9.137768201835332L191.05811909785376,19.97558437851874M191.05812553241762,19.97558607448515L184.4512913487299,23.547955162605408M191.05812553241762,19.97558607448515L248.32302295827049,40.84740710874695M191.05812553241762,9.137769897801745L191.05812553241762,19.97558607448515"
     style="fill:none;stroke:rgb(0,0,0);stroke-width:1;stroke-linecap:round"
     id="path156"
     inkscape:export-xdpi="96"
     inkscape:export-ydpi="96" />
  <path
     d="M153.88055383773707,91.42416172730601L196.73490445183725,68.25246509183394L196.73490445183725,-2.0455871089429194z"
     style="fill:rgb(238,238,238); fill-opacity: 0.32"
     id="path158"
     inkscape:export-xdpi="96"
     inkscape:export-ydpi="96" />
  <path
     d="M191.05811909785376,9.137768201835332L184.45128491416608,12.71013728995559M191.05812553241762,9.137769897801745L184.4512913487299,12.710138985922M191.05812553241762,9.137769897801745L248.32302295827049,40.84740710874695"
     style="fill:none;stroke:rgb(0,0,0);stroke-width:1;stroke-linecap:round"
     id="path160"
     inkscape:export-xdpi="96"
     inkscape:export-ydpi="96" />
  <path
     d="M184.45128491416605,23.547953466638994L191.05811909785376,19.975584378518736L191.05811909785376,9.13776820183533z"
     style="fill:rgb(153,221,255); fill-opacity: 0.4"
     id="path162"
     inkscape:export-xdpi="96"
     inkscape:export-ydpi="96" />
  <path
     d="M191.05812197339452,9.13776893486557L191.05812197339452,19.975585111548977L184.45128778970678,23.54795419966923z"
     style="fill:rgb(255,187,187); fill-opacity: 0.4"
     id="path164"
     inkscape:export-xdpi="96"
     inkscape:export-ydpi="96" />
  <path
     d="M184.45128491416605,12.710137289955586L184.45128491416605,23.547953466638994L191.05811909785376,9.13776820183533z"
     style="fill:rgb(153,221,255); fill-opacity: 0.4"
     id="path166"
     inkscape:export-xdpi="96"
     inkscape:export-ydpi="96" />
  <path
     d="M191.05812197339452,9.13776893486557L184.45128778970678,23.54795419966923L184.45128778970678,12.710138022985827z"
     style="fill:rgb(255,187,187); fill-opacity: 0.4"
     id="path168"
     inkscape:export-xdpi="96"
     inkscape:export-ydpi="96" />
  <path
     d="M184.45128491416608,12.71013728995559L184.45128491416608,23.547953466638994M184.4512913487299,23.547955162605408L248.32302295827049,40.84740710874695M184.4512913487299,23.547955162605408L184.4512913487299,12.710138985922"
     style="fill:none;stroke:rgb(0,0,0);stroke-width:1;stroke-linecap:round"
     id="path170"
     inkscape:export-xdpi="96"
     inkscape:export-ydpi="96" />
  <path
     d="M20.48875763438614,57.42004602573308L153.88055383773707,91.42416172730601L153.88055383773707,21.12610952652913z"
     style="fill:rgb(238,238,238); fill-opacity: 0.32"
     id="path172"
     inkscape:export-xdpi="96"
     inkscape:export-ydpi="96" />
  <path
     d="M184.4512913487299,12.710138985922L248.32302295827049,40.84740710874695"
     style="fill:none;stroke:rgb(0,0,0);stroke-width:1;stroke-linecap:round"
     id="path174"
     inkscape:export-xdpi="96"
     inkscape:export-ydpi="96" />
  <path
     d="M191.05812197339452,19.975585111548977L191.05812197339452,9.13776893486557L248.3230314604408,40.84741009965383zM184.45128778970678,23.54795419966923L191.05812197339452,19.975585111548977L248.3230314604408,40.84741009965383zM191.05812197339452,9.13776893486557L184.45128778970678,12.710138022985827L248.3230314604408,40.84741009965383zM184.45128778970678,12.710138022985827L184.45128778970678,23.54795419966923L248.3230314604408,40.84741009965383z"
     style="fill:rgb(255,187,187); fill-opacity: 0.4"
     id="path176"
     inkscape:export-xdpi="96"
     inkscape:export-ydpi="96" />
  <path
     d="M410.34442504132227,117.50002873420945L254.72065872566603,77.82855937604225M254.72065872566603,27.747214396459825L254.72065872566603,77.82855937604225M254.72065872566603,77.82855937604225L224.19060206277297,94.33640983040351"
     style="fill:none;stroke:rgb(0,0,0);stroke-width:1;stroke-linecap:round"
     id="path178"
     inkscape:export-xdpi="96"
     inkscape:export-ydpi="96" />
  <path
     d="M153.88055383773707,21.12610952652913L153.88055383773707,91.42416172730601L196.73490445183725,-2.0455871089429194z"
     style="fill:rgb(238,238,238); fill-opacity: 0.32"
     id="path180"
     inkscape:export-xdpi="96"
     inkscape:export-ydpi="96" />
  <path
     d="M153.88055383773707,21.12610952652913L153.88055383773707,91.424161727306M254.72065872566603,27.747214396459825L224.19060206277297,44.25506485082107M410.34442504132227,67.41868375462703L254.72065872566603,27.747214396459825"
     style="fill:none;stroke:rgb(0,0,0);stroke-width:1;stroke-linecap:round"
     id="path182"
     inkscape:export-xdpi="96"
     inkscape:export-ydpi="96" />
  <path
     d="M254.72065872566603,27.74721439645981L254.72065872566603,77.82855937604225L224.19060206277302,44.255064850821064zM254.72065872566603,77.82855937604225L224.19060206277302,94.3364098304035L224.19060206277302,44.255064850821064zM410.34442504132227,117.50002873420945L254.72065872566603,77.82855937604225L254.72065872566603,27.74721439645981z"
     style="fill:rgb(238,238,238); fill-opacity: 0.32"
     id="path184"
     inkscape:export-xdpi="96"
     inkscape:export-ydpi="96" />
  <path
     d="M224.19060206277297,94.33640983040351L379.8143683784292,134.0078791885707M224.19060206277297,44.25506485082107L224.19060206277297,94.33640983040351"
     style="fill:none;stroke:rgb(0,0,0);stroke-width:1;stroke-linecap:round"
     id="path186"
     inkscape:export-xdpi="96"
     inkscape:export-ydpi="96" />
  <path
     d="M224.19060206277302,94.3364098304035L254.72065872566603,77.82855937604225L410.34442504132227,117.50002873420945z"
     style="fill:rgb(238,238,238); fill-opacity: 0.32"
     id="path188"
     inkscape:export-xdpi="96"
     inkscape:export-ydpi="96" />
  <path
     d="M224.19060206277297,44.25506485082107L379.8143683784292,83.92653420898829"
     style="fill:none;stroke:rgb(0,0,0);stroke-width:1;stroke-linecap:round"
     id="path190"
     inkscape:export-xdpi="96"
     inkscape:export-ydpi="96" />
  <path
     d="M410.34442504132227,67.41868375462703L410.34442504132227,117.50002873420945L254.72065872566603,27.74721439645981zM224.19060206277302,44.255064850821064L379.81436837842926,83.92653420898827L254.72065872566603,27.74721439645981zM224.19060206277302,44.255064850821064L224.19060206277302,94.3364098304035L379.81436837842926,83.92653420898827zM379.81436837842926,134.0078791885707L224.19060206277302,94.3364098304035L410.34442504132227,117.50002873420945z"
     style="fill:rgb(238,238,238); fill-opacity: 0.32"
     id="path192"
     inkscape:export-xdpi="96"
     inkscape:export-ydpi="96" />
  <path
     d="M410.34442504132227,117.50002873420945L379.8143683784292,134.0078791885707M410.34442504132227,67.41868375462703L410.34442504132227,117.50002873420945"
     style="fill:none;stroke:rgb(0,0,0);stroke-width:1;stroke-linecap:round"
     id="path194"
     inkscape:export-xdpi="96"
     inkscape:export-ydpi="96" />
  <path
     d="M379.81436837842926,83.92653420898827L410.34442504132227,67.41868375462703L254.72065872566603,27.74721439645981z"
     style="fill:rgb(238,238,238); fill-opacity: 0.32"
     id="path196"
     inkscape:export-xdpi="96"
     inkscape:export-ydpi="96" />
  <path
     d="M477.9757927151484,253.49622321380318L462.71076438370187,261.7501484409838M477.9757927151484,-21.95118450964709L477.9757927151484,253.49622321380318M500.2077597686436,259.16357609064835L477.9757927151484,253.49622321380318"
     style="fill:none;stroke:rgb(0,0,0);stroke-width:1;stroke-linecap:round"
     id="path198"
     inkscape:export-xdpi="96"
     inkscape:export-ydpi="96" />
  <path
     d="M224.19060206277302,94.3364098304035L379.81436837842926,134.0078791885707L379.81436837842926,83.92653420898827z"
     style="fill:rgb(238,238,238); fill-opacity: 0.32"
     id="path200"
     inkscape:export-xdpi="96"
     inkscape:export-ydpi="96" />
  <path
     d="M410.34442504132227,67.41868375462703L379.8143683784292,83.92653420898829"
     style="fill:none;stroke:rgb(0,0,0);stroke-width:1;stroke-linecap:round"
     id="path202"
     inkscape:export-xdpi="96"
     inkscape:export-ydpi="96" />
  <path
     d="M379.81436837842926,134.0078791885707L410.34442504132227,117.50002873420945L410.34442504132227,67.41868375462703zM462.7107643837018,261.7501484409838L477.9757927151484,253.49622321380318L500.2077597686436,259.16357609064835z"
     style="fill:rgb(238,238,238); fill-opacity: 0.32"
     id="path204"
     inkscape:export-xdpi="96"
     inkscape:export-ydpi="96" />
  <path
     d="M500.2077597686436,-16.283831632801892L500.2077597686436,259.16357609064835M500.2077597686436,259.16357609064835L484.94273143719704,267.417501317829M462.71076438370187,261.7501484409838L484.94273143719704,267.417501317829M462.71076438370187,-13.697259282466447L462.71076438370187,261.7501484409838"
     style="fill:none;stroke:rgb(0,0,0);stroke-width:1;stroke-linecap:round"
     id="path206"
     inkscape:export-xdpi="96"
     inkscape:export-ydpi="96" />
  <path
     d="M484.94273143719715,267.417501317829L462.7107643837018,261.7501484409838L500.2077597686436,259.16357609064835z"
     style="fill:rgb(238,238,238); fill-opacity: 0.32"
     id="path208"
     inkscape:export-xdpi="96"
     inkscape:export-ydpi="96" />
  <path
     d="M409.4027763745843,104.36458442439672L445.7532513742881,113.63101454137875"
     style="fill:none;stroke:rgb(0,0,0);stroke-width:1;stroke-linecap:round"
     id="path210"
     inkscape:export-xdpi="96"
     inkscape:export-ydpi="96" />
  <path
     d="M379.81436837842926,83.92653420898827L379.81436837842926,134.0078791885707L410.34442504132227,67.41868375462703z"
     style="fill:rgb(238,238,238); fill-opacity: 0.32"
     id="path212"
     inkscape:export-xdpi="96"
     inkscape:export-ydpi="96" />
  <path
     d="M379.8143683784292,83.92653420898829L379.8143683784292,134.0078791885707M484.94273143719704,-8.029906405621249L484.94273143719704,267.417501317829"
     style="fill:none;stroke:rgb(0,0,0);stroke-width:1;stroke-linecap:round"
     id="path214"
     inkscape:export-xdpi="96"
     inkscape:export-ydpi="96" />
  <path
     d="M500.2077597686436,259.16357609064835L477.9757927151484,253.49622321380318L477.9757927151484,-21.951184509647096zM477.9757927151484,253.49622321380318L462.7107643837018,261.7501484409838L462.7107643837018,-13.697259282466453z"
     style="fill:rgb(238,238,238); fill-opacity: 0.32"
     id="path216"
     inkscape:export-xdpi="96"
     inkscape:export-ydpi="96" />
  <path
     d="M440.5170239916436,119.2531765864239L445.75325137428814,122.66252802194828L467.1358837270551,119.0818557866623zM448.9894177431609,104.57454504648113L442.5170850054153,108.07418810660796L467.1358837270551,119.0818557866623z"
     style="fill:rgb(0,0,0)"
     id="path218"
     inkscape:export-xdpi="96"
     inkscape:export-ydpi="96" />
  <path
     d="M484.94273143719715,267.417501317829L500.2077597686436,259.16357609064835L500.2077597686436,-16.2838316328019z"
     style="fill:rgb(238,238,238); fill-opacity: 0.32"
     id="path220"
     inkscape:export-xdpi="96"
     inkscape:export-ydpi="96" />
  <path
     d="M442.5170850054153,108.07418810660796L440.5170239916436,119.2531765864239L467.1358837270551,119.0818557866623z"
     style="fill:rgb(0,0,0)"
     id="path222"
     inkscape:export-xdpi="96"
     inkscape:export-ydpi="96" />
  <path
     d="M462.7107643837018,261.7501484409838L484.94273143719715,267.417501317829L484.94273143719715,-8.029906405621254zM477.9757927151484,-21.951184509647096L477.9757927151484,253.49622321380318L462.7107643837018,-13.697259282466453z"
     style="fill:rgb(238,238,238); fill-opacity: 0.32"
     id="path224"
     inkscape:export-xdpi="96"
     inkscape:export-ydpi="96" />
  <path
     d="M495.7826404252904,126.3844610215196L532.1331154249942,135.65089113850163"
     style="fill:none;stroke:rgb(0,0,0);stroke-width:1;stroke-linecap:round"
     id="path226"
     inkscape:export-xdpi="96"
     inkscape:export-ydpi="96" />
  <path
     d="M500.2077597686436,-16.2838316328019L500.2077597686436,259.16357609064835L477.9757927151484,-21.951184509647096zM462.7107643837018,-13.697259282466453L462.7107643837018,261.7501484409838L484.94273143719715,-8.029906405621254zM484.94273143719715,-8.029906405621254L484.94273143719715,267.417501317829L500.2077597686436,-16.2838316328019z"
     style="fill:rgb(238,238,238); fill-opacity: 0.32"
     id="path228"
     inkscape:export-xdpi="96"
     inkscape:export-ydpi="96" />
  <path
     d="M586.5876238193499,145.26605152216004L564.3556567658546,139.59869864531484M564.3556567658546,135.98609325308703L564.3556567658546,139.59869864531484M564.3556567658546,139.59869864531484L549.090628434408,147.85262387249546"
     style="fill:none;stroke:rgb(0,0,0);stroke-width:1;stroke-linecap:round"
     id="path230"
     inkscape:export-xdpi="96"
     inkscape:export-ydpi="96" />
  <path
     d="M526.8968880423497,141.27305318354678L532.1331154249942,144.68240461907115L553.5157477777611,141.10173238378516z"
     style="fill:rgb(0,0,0)"
     id="path232"
     inkscape:export-xdpi="96"
     inkscape:export-ydpi="96" />
  <path
     d="M477.9757927151484,-21.95118450964709L462.71076438370187,-13.697259282466447M500.2077597686436,-16.283831632801892L477.9757927151484,-21.95118450964709M564.3556567658546,135.98609325308703L549.090628434408,144.24001848026768M586.5876238193499,141.65344612993223L564.3556567658546,135.98609325308703"
     style="fill:none;stroke:rgb(0,0,0);stroke-width:1;stroke-linecap:round"
     id="path234"
     inkscape:export-xdpi="96"
     inkscape:export-ydpi="96" />
  <path
     d="M535.3692817938671,126.59442164360402L528.8969490561213,130.09406470373082L553.5157477777611,141.10173238378516zM528.8969490561213,130.09406470373082L526.8968880423497,141.27305318354678L553.5157477777611,141.10173238378516z"
     style="fill:rgb(0,0,0)"
     id="path236"
     inkscape:export-xdpi="96"
     inkscape:export-ydpi="96" />
  <path
     d="M586.5876238193498,145.26605152216004L564.3556567658546,139.59869864531484L564.3556567658546,135.98609325308703zM564.3556567658546,135.98609325308703L564.3556567658546,139.59869864531484L549.0906284344081,144.24001848026765zM586.5876238193498,141.65344612993223L586.5876238193498,145.26605152216004L564.3556567658546,135.98609325308703zM549.0906284344081,147.85262387249546L564.3556567658546,139.59869864531484L586.5876238193498,145.26605152216004z"
     style="fill:rgb(238,238,238); fill-opacity: 0.32"
     id="path238"
     inkscape:export-xdpi="96"
     inkscape:export-ydpi="96" />
  <path
     d="M586.5876238193499,145.26605152216004L571.3225954879033,153.51997674934066M586.5876238193499,141.65344612993223L586.5876238193499,145.26605152216004"
     style="fill:none;stroke:rgb(0,0,0);stroke-width:1;stroke-linecap:round"
     id="path240"
     inkscape:export-xdpi="96"
     inkscape:export-ydpi="96" />
  <path
     d="M564.3556567658546,139.59869864531484L549.0906284344081,147.85262387249546L549.0906284344081,144.24001848026765z"
     style="fill:rgb(238,238,238); fill-opacity: 0.32"
     id="path242"
     inkscape:export-xdpi="96"
     inkscape:export-ydpi="96" />
  <path
     d="M500.2077597686436,-16.283831632801892L484.94273143719704,-8.029906405621249M586.5876238193499,141.65344612993223L571.3225954879033,149.90737135711285"
     style="fill:none;stroke:rgb(0,0,0);stroke-width:1;stroke-linecap:round"
     id="path244"
     inkscape:export-xdpi="96"
     inkscape:export-ydpi="96" />
  <path
     d="M484.94273143719715,-8.029906405621254L500.2077597686436,-16.2838316328019L477.9757927151484,-21.951184509647096zM571.3225954879033,149.90737135711285L586.5876238193498,141.65344612993223L564.3556567658546,135.98609325308703zM462.7107643837018,-13.697259282466453L484.94273143719715,-8.029906405621254L477.9757927151484,-21.951184509647096zM549.0906284344081,144.24001848026765L571.3225954879033,149.90737135711285L564.3556567658546,135.98609325308703z"
     style="fill:rgb(238,238,238); fill-opacity: 0.32"
     id="path246"
     inkscape:export-xdpi="96"
     inkscape:export-ydpi="96" />
  <path
     d="M549.090628434408,147.85262387249546L571.3225954879033,153.51997674934066M549.090628434408,144.24001848026768L549.090628434408,147.85262387249546M462.71076438370187,-13.697259282466447L484.94273143719704,-8.029906405621249"
     style="fill:none;stroke:rgb(0,0,0);stroke-width:1;stroke-linecap:round"
     id="path248"
     inkscape:export-xdpi="96"
     inkscape:export-ydpi="96" />
  <path
     d="M571.3225954879033,153.51997674934066L586.5876238193498,145.26605152216004L586.5876238193498,141.65344612993223z"
     style="fill:rgb(238,238,238); fill-opacity: 0.32"
     id="path250"
     inkscape:export-xdpi="96"
     inkscape:export-ydpi="96" />
  <path
     d="M549.090628434408,144.24001848026768L571.3225954879033,149.90737135711285"
     style="fill:none;stroke:rgb(0,0,0);stroke-width:1;stroke-linecap:round"
     id="path252"
     inkscape:export-xdpi="96"
     inkscape:export-ydpi="96" />
  <path
     d="M571.3225954879033,153.51997674934066L549.0906284344081,147.85262387249546L586.5876238193498,145.26605152216004zM549.0906284344081,144.24001848026765L549.0906284344081,147.85262387249546L571.3225954879033,149.90737135711285zM571.3225954879033,149.90737135711285L571.3225954879033,153.51997674934066L586.5876238193498,141.65344612993223zM549.0906284344081,147.85262387249546L571.3225954879033,153.51997674934066L571.3225954879033,149.90737135711285z"
     style="fill:rgb(238,238,238); fill-opacity: 0.32"
     id="path254"
     inkscape:export-xdpi="96"
     inkscape:export-ydpi="96" />
  <path
     d="M571.3225954879033,149.90737135711285L571.3225954879033,153.51997674934066"
     style="fill:none;stroke:rgb(0,0,0);stroke-width:1;stroke-linecap:round"
     id="path256"
     inkscape:export-xdpi="96"
     inkscape:export-ydpi="96" />
  <text
     xml:space="preserve"
     style="font-style:normal;font-weight:normal;font-size:40px;line-height:1.25;font-family:sans-serif;letter-spacing:0px;word-spacing:0px;fill:#000000;fill-opacity:1;stroke:none"
     x="-208.13353"
     y="-114.6297"
     id="text268"
     inkscape:export-xdpi="96"
     inkscape:export-ydpi="96"><tspan
       sodipodi:role="line"
       id="tspan266"
       x="-208.13353"
       y="-114.6297"
       style="font-size:10.66666698px">28</tspan></text>
  <text
     xml:space="preserve"
     style="font-style:normal;font-weight:normal;font-size:40px;line-height:1.25;font-family:sans-serif;letter-spacing:0px;word-spacing:0px;fill:#000000;fill-opacity:1;stroke:none"
     x="-253.72636"
     y="-33.9828"
     id="text268-3"
     inkscape:export-xdpi="96"
     inkscape:export-ydpi="96"><tspan
       sodipodi:role="line"
       id="tspan266-6"
       x="-253.72636"
       y="-33.9828"
       style="font-size:10.66666698px">28</tspan></text>
  <text
     xml:space="preserve"
     style="font-style:normal;font-weight:normal;font-size:40px;line-height:1.25;font-family:sans-serif;letter-spacing:0px;word-spacing:0px;fill:#000000;fill-opacity:1;stroke:none"
     x="-139.76732"
     y="-85.839882"
     id="text268-3-7"
     inkscape:export-xdpi="96"
     inkscape:export-ydpi="96"><tspan
       sodipodi:role="line"
       id="tspan266-6-5"
       x="-139.76732"
       y="-85.839882"
       style="font-size:10.66666698px">14</tspan></text>
  <text
     xml:space="preserve"
     style="font-style:normal;font-weight:normal;font-size:40px;line-height:1.25;font-family:sans-serif;letter-spacing:0px;word-spacing:0px;fill:#000000;fill-opacity:1;stroke:none"
     x="-178.96228"
     y="-19.737923"
     id="text268-3-7-3"
     inkscape:export-xdpi="96"
     inkscape:export-ydpi="96"><tspan
       sodipodi:role="line"
       id="tspan266-6-5-5"
       x="-178.96228"
       y="-19.737923"
       style="font-size:10.66666698px">14</tspan></text>
  <text
     xml:space="preserve"
     style="font-style:normal;font-weight:normal;font-size:40px;line-height:1.25;font-family:sans-serif;letter-spacing:0px;word-spacing:0px;fill:#000000;fill-opacity:1;stroke:none"
     x="-120.77415"
     y="53.86063"
     id="text268-3-7-6"
     inkscape:export-xdpi="96"
     inkscape:export-ydpi="96"><tspan
       sodipodi:role="line"
       id="tspan266-6-5-2"
       x="-120.77415"
       y="53.86063"
       style="font-size:10.66666698px">32</tspan></text>
  <text
     xml:space="preserve"
     style="font-style:normal;font-weight:normal;font-size:40px;line-height:1.25;font-family:sans-serif;letter-spacing:0px;word-spacing:0px;fill:#000000;fill-opacity:1;stroke:none"
     x="31.61002"
     y="-26.068989"
     id="text268-3-7-9"
     inkscape:export-xdpi="96"
     inkscape:export-ydpi="96"><tspan
       sodipodi:role="line"
       id="tspan266-6-5-1"
       x="31.61002"
       y="-26.068989"
       style="font-size:10.66666698px">7</tspan></text>
  <text
     xml:space="preserve"
     style="font-style:normal;font-weight:normal;font-size:40px;line-height:1.25;font-family:sans-serif;letter-spacing:0px;word-spacing:0px;fill:#000000;fill-opacity:1;stroke:none"
     x="9.8685722"
     y="37.198498"
     id="text268-3-7-3-2"
     inkscape:export-xdpi="96"
     inkscape:export-ydpi="96"><tspan
       sodipodi:role="line"
       id="tspan266-6-5-5-7"
       x="9.8685722"
       y="37.198498"
       style="font-size:10.66666698px">7</tspan></text>
  <text
     xml:space="preserve"
     style="font-style:normal;font-weight:normal;font-size:40px;line-height:1.25;font-family:sans-serif;letter-spacing:0px;word-spacing:0px;fill:#000000;fill-opacity:1;stroke:none"
     x="76.675713"
     y="85.51593"
     id="text268-3-7-6-0"
     inkscape:export-xdpi="96"
     inkscape:export-ydpi="96"><tspan
       sodipodi:role="line"
       id="tspan266-6-5-2-9"
       x="76.675713"
       y="85.51593"
       style="font-size:10.66666698px">64</tspan></text>
  <text
     xml:space="preserve"
     style="font-style:normal;font-weight:normal;font-size:40px;line-height:1.25;font-family:sans-serif;letter-spacing:0px;word-spacing:0px;fill:#000000;fill-opacity:1;stroke:none"
     x="238.55649"
     y="30.536396"
     id="text268-3-7-9-3"
     inkscape:export-xdpi="96"
     inkscape:export-ydpi="96"><tspan
       sodipodi:role="line"
       id="tspan266-6-5-1-6"
       x="238.55649"
       y="30.536396"
       style="font-size:10.66666698px">4</tspan></text>
  <text
     xml:space="preserve"
     style="font-style:normal;font-weight:normal;font-size:40px;line-height:1.25;font-family:sans-serif;letter-spacing:0px;word-spacing:0px;fill:#000000;fill-opacity:1;stroke:none"
     x="212.44087"
     y="73.271034"
     id="text268-3-7-9-0"
     inkscape:export-xdpi="96"
     inkscape:export-ydpi="96"><tspan
       sodipodi:role="line"
       id="tspan266-6-5-1-62"
       x="212.44087"
       y="73.271034"
       style="font-size:10.66666698px">4</tspan></text>
  <text
     xml:space="preserve"
     style="font-style:normal;font-weight:normal;font-size:41.91596603px;line-height:1.25;font-family:sans-serif;letter-spacing:0px;word-spacing:0px;fill:#000000;fill-opacity:1;stroke:none;stroke-width:1.04789913"
     x="300.47943"
     y="119.35331"
     id="text268-3-7-9-6"
     transform="scale(0.95429035,1.0478991)"
     inkscape:export-xdpi="96"
     inkscape:export-ydpi="96"><tspan
       sodipodi:role="line"
       id="tspan266-6-5-1-1"
       x="300.47943"
       y="119.35331"
       style="font-size:11.17759132px;stroke-width:1.04789913">128</tspan></text>
  <text
     xml:space="preserve"
     style="font-style:normal;font-weight:normal;font-size:41.91596603px;line-height:1.25;font-family:sans-serif;letter-spacing:0px;word-spacing:0px;fill:#000000;fill-opacity:1;stroke:none;stroke-width:1.04789913"
     x="492.48236"
     y="268.86401"
     id="text268-3-7-9-6-8"
     transform="scale(0.95429035,1.0478991)"
     inkscape:export-xdpi="96"
     inkscape:export-ydpi="96"><tspan
       sodipodi:role="line"
       id="tspan266-6-5-1-1-7"
       x="492.48236"
       y="268.86401"
       style="font-size:11.17759132px;stroke-width:1.04789913">2048</tspan></text>
  <text
     xml:space="preserve"
     style="font-style:normal;font-weight:normal;font-size:41.91596603px;line-height:1.25;font-family:sans-serif;letter-spacing:0px;word-spacing:0px;fill:#000000;fill-opacity:1;stroke:none;stroke-width:1.04789913"
     x="584.97058"
     y="157.49132"
     id="text268-3-7-9-6-8-9"
     transform="scale(0.95429035,1.0478991)"
     inkscape:export-xdpi="96"
     inkscape:export-ydpi="96"><tspan
       sodipodi:role="line"
       id="tspan266-6-5-1-1-7-2"
       x="584.97058"
       y="157.49132"
       style="font-size:11.17759132px;stroke-width:1.04789913">1</tspan></text>
</svg>
